%TF.GenerationSoftware,KiCad,Pcbnew,(5.1.10)-1*%
%TF.CreationDate,2021-11-16T23:10:03+01:00*%
%TF.ProjectId,Looper,4c6f6f70-6572-42e6-9b69-6361645f7063,rev?*%
%TF.SameCoordinates,Original*%
%TF.FileFunction,Paste,Top*%
%TF.FilePolarity,Positive*%
%FSLAX46Y46*%
G04 Gerber Fmt 4.6, Leading zero omitted, Abs format (unit mm)*
G04 Created by KiCad (PCBNEW (5.1.10)-1) date 2021-11-16 23:10:03*
%MOMM*%
%LPD*%
G01*
G04 APERTURE LIST*
%ADD10R,0.625831X1.965432*%
G04 APERTURE END LIST*
%TO.C,U3*%
G36*
G01*
X218008200Y-105089132D02*
X218008200Y-105089132D01*
G75*
G02*
X217695285Y-104776217I0J312915D01*
G01*
X217695285Y-103436615D01*
G75*
G02*
X218008200Y-103123700I312915J0D01*
G01*
X218008200Y-103123700D01*
G75*
G02*
X218321115Y-103436615I0J-312915D01*
G01*
X218321115Y-104776217D01*
G75*
G02*
X218008200Y-105089132I-312915J0D01*
G01*
G37*
G36*
G01*
X219278200Y-105089132D02*
X219278200Y-105089132D01*
G75*
G02*
X218965285Y-104776217I0J312915D01*
G01*
X218965285Y-103436615D01*
G75*
G02*
X219278200Y-103123700I312915J0D01*
G01*
X219278200Y-103123700D01*
G75*
G02*
X219591115Y-103436615I0J-312915D01*
G01*
X219591115Y-104776217D01*
G75*
G02*
X219278200Y-105089132I-312915J0D01*
G01*
G37*
G36*
G01*
X220548201Y-105089132D02*
X220548201Y-105089132D01*
G75*
G02*
X220235286Y-104776217I0J312915D01*
G01*
X220235286Y-103436615D01*
G75*
G02*
X220548201Y-103123700I312915J0D01*
G01*
X220548201Y-103123700D01*
G75*
G02*
X220861116Y-103436615I0J-312915D01*
G01*
X220861116Y-104776217D01*
G75*
G02*
X220548201Y-105089132I-312915J0D01*
G01*
G37*
G36*
G01*
X221818201Y-105089132D02*
X221818201Y-105089132D01*
G75*
G02*
X221505286Y-104776217I0J312915D01*
G01*
X221505286Y-103436615D01*
G75*
G02*
X221818201Y-103123700I312915J0D01*
G01*
X221818201Y-103123700D01*
G75*
G02*
X222131116Y-103436615I0J-312915D01*
G01*
X222131116Y-104776217D01*
G75*
G02*
X221818201Y-105089132I-312915J0D01*
G01*
G37*
G36*
G01*
X221818201Y-112369900D02*
X221818201Y-112369900D01*
G75*
G02*
X221505286Y-112056985I0J312915D01*
G01*
X221505286Y-110717383D01*
G75*
G02*
X221818201Y-110404468I312915J0D01*
G01*
X221818201Y-110404468D01*
G75*
G02*
X222131116Y-110717383I0J-312915D01*
G01*
X222131116Y-112056985D01*
G75*
G02*
X221818201Y-112369900I-312915J0D01*
G01*
G37*
G36*
G01*
X220548201Y-112369900D02*
X220548201Y-112369900D01*
G75*
G02*
X220235286Y-112056985I0J312915D01*
G01*
X220235286Y-110717383D01*
G75*
G02*
X220548201Y-110404468I312915J0D01*
G01*
X220548201Y-110404468D01*
G75*
G02*
X220861116Y-110717383I0J-312915D01*
G01*
X220861116Y-112056985D01*
G75*
G02*
X220548201Y-112369900I-312915J0D01*
G01*
G37*
G36*
G01*
X219278200Y-112369900D02*
X219278200Y-112369900D01*
G75*
G02*
X218965285Y-112056985I0J312915D01*
G01*
X218965285Y-110717383D01*
G75*
G02*
X219278200Y-110404468I312915J0D01*
G01*
X219278200Y-110404468D01*
G75*
G02*
X219591115Y-110717383I0J-312915D01*
G01*
X219591115Y-112056985D01*
G75*
G02*
X219278200Y-112369900I-312915J0D01*
G01*
G37*
D10*
X218008200Y-111387184D03*
%TD*%
%TO.C,C5*%
G36*
G01*
X222934500Y-117744001D02*
X222934500Y-116443999D01*
G75*
G02*
X223184499Y-116194000I249999J0D01*
G01*
X224009501Y-116194000D01*
G75*
G02*
X224259500Y-116443999I0J-249999D01*
G01*
X224259500Y-117744001D01*
G75*
G02*
X224009501Y-117994000I-249999J0D01*
G01*
X223184499Y-117994000D01*
G75*
G02*
X222934500Y-117744001I0J249999D01*
G01*
G37*
G36*
G01*
X219809500Y-117744001D02*
X219809500Y-116443999D01*
G75*
G02*
X220059499Y-116194000I249999J0D01*
G01*
X220884501Y-116194000D01*
G75*
G02*
X221134500Y-116443999I0J-249999D01*
G01*
X221134500Y-117744001D01*
G75*
G02*
X220884501Y-117994000I-249999J0D01*
G01*
X220059499Y-117994000D01*
G75*
G02*
X219809500Y-117744001I0J249999D01*
G01*
G37*
%TD*%
%TO.C,C13*%
G36*
G01*
X189056000Y-81333001D02*
X189056000Y-78432999D01*
G75*
G02*
X189305999Y-78183000I249999J0D01*
G01*
X190381001Y-78183000D01*
G75*
G02*
X190631000Y-78432999I0J-249999D01*
G01*
X190631000Y-81333001D01*
G75*
G02*
X190381001Y-81583000I-249999J0D01*
G01*
X189305999Y-81583000D01*
G75*
G02*
X189056000Y-81333001I0J249999D01*
G01*
G37*
G36*
G01*
X184781000Y-81333001D02*
X184781000Y-78432999D01*
G75*
G02*
X185030999Y-78183000I249999J0D01*
G01*
X186106001Y-78183000D01*
G75*
G02*
X186356000Y-78432999I0J-249999D01*
G01*
X186356000Y-81333001D01*
G75*
G02*
X186106001Y-81583000I-249999J0D01*
G01*
X185030999Y-81583000D01*
G75*
G02*
X184781000Y-81333001I0J249999D01*
G01*
G37*
%TD*%
%TO.C,C12*%
G36*
G01*
X189034500Y-87429001D02*
X189034500Y-84528999D01*
G75*
G02*
X189284499Y-84279000I249999J0D01*
G01*
X190359501Y-84279000D01*
G75*
G02*
X190609500Y-84528999I0J-249999D01*
G01*
X190609500Y-87429001D01*
G75*
G02*
X190359501Y-87679000I-249999J0D01*
G01*
X189284499Y-87679000D01*
G75*
G02*
X189034500Y-87429001I0J249999D01*
G01*
G37*
G36*
G01*
X184759500Y-87429001D02*
X184759500Y-84528999D01*
G75*
G02*
X185009499Y-84279000I249999J0D01*
G01*
X186084501Y-84279000D01*
G75*
G02*
X186334500Y-84528999I0J-249999D01*
G01*
X186334500Y-87429001D01*
G75*
G02*
X186084501Y-87679000I-249999J0D01*
G01*
X185009499Y-87679000D01*
G75*
G02*
X184759500Y-87429001I0J249999D01*
G01*
G37*
%TD*%
M02*
