M48
; DRILL file {KiCad (5.1.10)-1} date 11/16/21 23:10:10
; FORMAT={-:-/ absolute / inch / decimal}
; #@! TF.CreationDate,2021-11-16T23:10:10+01:00
; #@! TF.GenerationSoftware,Kicad,Pcbnew,(5.1.10)-1
; #@! TF.FileFunction,Plated,1,2,PTH
FMAT,2
INCH
T1C0.0276
T2C0.0315
T3C0.0354
T4C0.0394
T5C0.0433
T6C0.0472
T7C0.0512
%
G90
G05
T1
X6.495Y-3.7552
X6.495Y-3.83
X8.74Y-3.47
X8.79Y-3.52
X8.84Y-3.47
T2
X6.535Y-4.08
X6.535Y-4.18
X6.535Y-4.28
X6.535Y-4.38
X6.535Y-4.48
X6.535Y-4.58
X6.535Y-4.68
X6.82Y-4.9
X6.82Y-5.0
X6.82Y-5.1
X6.82Y-5.2
X6.82Y-5.3
X6.82Y-5.4
X6.82Y-5.5
X6.835Y-4.08
X6.835Y-4.18
X6.835Y-4.28
X6.835Y-4.38
X6.835Y-4.48
X6.835Y-4.58
X6.835Y-4.68
X7.12Y-4.9
X7.12Y-5.0
X7.12Y-5.1
X7.12Y-5.2
X7.12Y-5.3
X7.12Y-5.4
X7.12Y-5.5
X7.235Y-3.84
X7.335Y-2.595
X7.335Y-2.895
X7.435Y-2.595
X7.435Y-2.895
X7.455Y-3.98
X7.455Y-4.48
X7.535Y-2.595
X7.535Y-2.895
X7.635Y-2.595
X7.635Y-2.895
X7.71Y-4.365
X7.735Y-3.84
X7.8478Y-4.365
X7.9Y-5.495
X7.93Y-5.12
X8.0Y-3.43
X8.0Y-3.53
X8.0Y-3.63
X8.0Y-3.73
X8.0Y-3.83
X8.0Y-3.93
X8.0Y-4.03
X8.0Y-4.13
X8.0Y-4.23
X8.0Y-4.33
X8.0Y-4.43
X8.0Y-4.53
X8.0Y-4.63
X8.0Y-4.73
X8.0678Y-5.12
X8.3Y-3.43
X8.3Y-3.53
X8.3Y-3.63
X8.3Y-3.73
X8.3Y-3.83
X8.3Y-3.93
X8.3Y-4.03
X8.3Y-4.13
X8.3Y-4.23
X8.3Y-4.33
X8.3Y-4.43
X8.3Y-4.53
X8.3Y-4.63
X8.3Y-4.73
X8.4Y-5.495
X8.435Y-3.89
X8.445Y-3.71
X8.835Y-3.89
X8.845Y-3.71
T3
X9.345Y-3.76
X9.345Y-3.86
T4
X6.24Y-3.6
X6.24Y-3.6984
X6.24Y-3.7969
X6.285Y-4.0647
X6.285Y-4.36
X6.725Y-3.83
X7.0203Y-3.83
X7.165Y-4.1347
X7.165Y-4.43
X7.2497Y-1.845
X7.3777Y-4.663
X7.38Y-4.9
X7.545Y-1.845
X7.63Y-2.365
X7.673Y-4.663
X7.6753Y-4.9
X7.68Y-5.2497
X7.68Y-5.545
X7.73Y-3.38
X7.73Y-3.48
X7.73Y-3.58
X7.925Y-1.41
X7.925Y-1.7053
X7.9253Y-2.365
T5
X7.29Y-1.48
X7.39Y-1.48
X7.49Y-1.48
X9.2091Y-3.4178
X9.2091Y-3.595
X9.465Y-3.4178
X9.465Y-3.595
T6
X8.03Y-3.17
X8.18Y-1.64
X8.18Y-2.44
X8.46Y-1.64
X8.46Y-2.44
X8.72Y-1.64
X8.72Y-2.44
X8.83Y-3.17
T7
X7.77Y-0.99
X7.97Y-0.99
X8.67Y-5.09
X8.67Y-5.29
T0
M30
