%TF.GenerationSoftware,KiCad,Pcbnew,(5.1.10)-1*%
%TF.CreationDate,2021-11-16T23:10:03+01:00*%
%TF.ProjectId,Looper,4c6f6f70-6572-42e6-9b69-6361645f7063,rev?*%
%TF.SameCoordinates,Original*%
%TF.FileFunction,Legend,Top*%
%TF.FilePolarity,Positive*%
%FSLAX46Y46*%
G04 Gerber Fmt 4.6, Leading zero omitted, Abs format (unit mm)*
G04 Created by KiCad (PCBNEW (5.1.10)-1) date 2021-11-16 23:10:03*
%MOMM*%
%LPD*%
G01*
G04 APERTURE LIST*
%ADD10C,0.120000*%
%ADD11C,0.150000*%
%ADD12C,0.500000*%
%ADD13C,0.250000*%
G04 APERTURE END LIST*
D10*
%TO.C,SW1*%
X233661000Y-88313000D02*
X233661000Y-89813000D01*
X234911000Y-92313000D02*
X239411000Y-92313000D01*
X240661000Y-89813000D02*
X240661000Y-88313000D01*
X239411000Y-85813000D02*
X234911000Y-85813000D01*
%TO.C,R9*%
X215289000Y-98806000D02*
X216059000Y-98806000D01*
X223369000Y-98806000D02*
X222599000Y-98806000D01*
X216059000Y-100176000D02*
X222599000Y-100176000D01*
X216059000Y-97436000D02*
X216059000Y-100176000D01*
X222599000Y-97436000D02*
X216059000Y-97436000D01*
X222599000Y-100176000D02*
X222599000Y-97436000D01*
%TO.C,R8*%
X215543000Y-94234000D02*
X216313000Y-94234000D01*
X223623000Y-94234000D02*
X222853000Y-94234000D01*
X216313000Y-95604000D02*
X222853000Y-95604000D01*
X216313000Y-92864000D02*
X216313000Y-95604000D01*
X222853000Y-92864000D02*
X216313000Y-92864000D01*
X222853000Y-95604000D02*
X222853000Y-92864000D01*
%TO.C,Q1*%
X219781552Y-85643501D02*
X220693719Y-86555669D01*
X220771501Y-84653552D02*
X219781552Y-85643501D01*
X221683669Y-85565719D02*
X220771501Y-84653552D01*
X220693850Y-86555456D02*
G75*
G03*
X221683669Y-85565719I2572150J-1582544D01*
G01*
%TO.C,RECORD*%
X235818000Y-99334000D02*
X238908000Y-99334000D01*
X239863000Y-96774000D02*
G75*
G03*
X239863000Y-96774000I-2500000J0D01*
G01*
X237362538Y-93784000D02*
G75*
G02*
X238907830Y-99334000I462J-2990000D01*
G01*
X237363462Y-93784000D02*
G75*
G03*
X235818170Y-99334000I-462J-2990000D01*
G01*
%TO.C,J1*%
X205278000Y-20246000D02*
X204778000Y-20246000D01*
X205278000Y-20986000D02*
X205278000Y-20246000D01*
X198585000Y-24123000D02*
X198632000Y-24077000D01*
X196288000Y-26421000D02*
X196323000Y-26385000D01*
X198392000Y-23907000D02*
X198427000Y-23872000D01*
X196083000Y-26215000D02*
X196130000Y-26169000D01*
X194758000Y-30407000D02*
X194758000Y-20486000D01*
X205038000Y-30407000D02*
X205038000Y-20486000D01*
X205038000Y-20486000D02*
X194758000Y-20486000D01*
X205038000Y-30407000D02*
X194758000Y-30407000D01*
X205038000Y-27447000D02*
X194758000Y-27447000D01*
X205038000Y-22546000D02*
X194758000Y-22546000D01*
X205038000Y-21046000D02*
X194758000Y-21046000D01*
X199038000Y-25146000D02*
G75*
G03*
X199038000Y-25146000I-1680000J0D01*
G01*
X202409195Y-23465747D02*
G75*
G02*
X203122000Y-23611000I28805J-1680253D01*
G01*
X203973426Y-24462958D02*
G75*
G02*
X203973000Y-25830000I-1535426J-683042D01*
G01*
X203121042Y-26681426D02*
G75*
G02*
X201754000Y-26681000I-683042J1535426D01*
G01*
X200902574Y-25829042D02*
G75*
G02*
X200903000Y-24462000I1535426J683042D01*
G01*
X201754682Y-23611244D02*
G75*
G02*
X202438000Y-23466000I683318J-1534756D01*
G01*
%TO.C,U2*%
X168799000Y-102302000D02*
X167149000Y-102302000D01*
X167149000Y-102302000D02*
X167149000Y-120202000D01*
X167149000Y-120202000D02*
X172449000Y-120202000D01*
X172449000Y-120202000D02*
X172449000Y-102302000D01*
X172449000Y-102302000D02*
X170799000Y-102302000D01*
X170799000Y-102302000D02*
G75*
G02*
X168799000Y-102302000I-1000000J0D01*
G01*
%TO.C,R7*%
X184809000Y-97536000D02*
X185499000Y-97536000D01*
X195429000Y-97536000D02*
X194739000Y-97536000D01*
X185499000Y-99256000D02*
X194739000Y-99256000D01*
X185499000Y-95816000D02*
X185499000Y-99256000D01*
X194739000Y-95816000D02*
X185499000Y-95816000D01*
X194739000Y-99256000D02*
X194739000Y-95816000D01*
%TO.C,R4*%
X201700000Y-139573000D02*
X202390000Y-139573000D01*
X212320000Y-139573000D02*
X211630000Y-139573000D01*
X202390000Y-141293000D02*
X211630000Y-141293000D01*
X202390000Y-137853000D02*
X202390000Y-141293000D01*
X211630000Y-137853000D02*
X202390000Y-137853000D01*
X211630000Y-141293000D02*
X211630000Y-137853000D01*
%TO.C,R1*%
X189357000Y-112752000D02*
X189357000Y-112062000D01*
X189357000Y-102132000D02*
X189357000Y-102822000D01*
X191077000Y-112062000D02*
X191077000Y-102822000D01*
X187637000Y-112062000D02*
X191077000Y-112062000D01*
X187637000Y-102822000D02*
X187637000Y-112062000D01*
X191077000Y-102822000D02*
X187637000Y-102822000D01*
%TO.C,U6*%
X195319000Y-74973000D02*
X195319000Y-64473000D01*
X184919000Y-74973000D02*
X195319000Y-74973000D01*
X184919000Y-64473000D02*
X184919000Y-74973000D01*
X195319000Y-64473000D02*
X184919000Y-64473000D01*
X195259000Y-71973000D02*
X195259000Y-70723000D01*
X184979000Y-71973000D02*
X195259000Y-71973000D01*
X184979000Y-67473000D02*
X184979000Y-71973000D01*
X195259000Y-67473000D02*
X184979000Y-67473000D01*
X195259000Y-68723000D02*
X195259000Y-67473000D01*
X195259000Y-70723000D02*
G75*
G02*
X195259000Y-68723000I0J1000000D01*
G01*
%TO.C,C6*%
X193263000Y-49483000D02*
X182523000Y-49483000D01*
X193263000Y-44243000D02*
X182523000Y-44243000D01*
X193263000Y-49483000D02*
X193263000Y-44243000D01*
X182523000Y-49483000D02*
X182523000Y-44243000D01*
%TO.C,C14*%
X192182000Y-57451000D02*
X202922000Y-57451000D01*
X192182000Y-62691000D02*
X202922000Y-62691000D01*
X192182000Y-57451000D02*
X192182000Y-62691000D01*
X202922000Y-57451000D02*
X202922000Y-62691000D01*
%TO.C,U4*%
X176038000Y-123130000D02*
X174388000Y-123130000D01*
X174388000Y-123130000D02*
X174388000Y-141030000D01*
X174388000Y-141030000D02*
X179688000Y-141030000D01*
X179688000Y-141030000D02*
X179688000Y-123130000D01*
X179688000Y-123130000D02*
X178038000Y-123130000D01*
X178038000Y-123130000D02*
G75*
G02*
X176038000Y-123130000I-1000000J0D01*
G01*
%TO.C,C9*%
X185832000Y-121840000D02*
X196572000Y-121840000D01*
X185832000Y-127080000D02*
X196572000Y-127080000D01*
X185832000Y-121840000D02*
X185832000Y-127080000D01*
X196572000Y-121840000D02*
X196572000Y-127080000D01*
%TO.C,C10*%
X192452000Y-142463000D02*
X192452000Y-131723000D01*
X197692000Y-142463000D02*
X197692000Y-131723000D01*
X192452000Y-142463000D02*
X197692000Y-142463000D01*
X192452000Y-131723000D02*
X197692000Y-131723000D01*
%TO.C,C7*%
X196514200Y-121060200D02*
X185774200Y-121060200D01*
X196514200Y-115820200D02*
X185774200Y-115820200D01*
X196514200Y-121060200D02*
X196514200Y-115820200D01*
X185774200Y-121060200D02*
X185774200Y-115820200D01*
%TO.C,U5*%
X192826000Y-40862000D02*
X182586000Y-40862000D01*
X192826000Y-36221000D02*
X182586000Y-36221000D01*
X192826000Y-40862000D02*
X192826000Y-36221000D01*
X182586000Y-40862000D02*
X182586000Y-36221000D01*
X192826000Y-39352000D02*
X182586000Y-39352000D01*
X189556000Y-40862000D02*
X189556000Y-39352000D01*
X185855000Y-40862000D02*
X185855000Y-39352000D01*
%TO.C,C8*%
X203915000Y-34194000D02*
X203915000Y-44934000D01*
X198675000Y-34194000D02*
X198675000Y-44934000D01*
X203915000Y-34194000D02*
X198675000Y-34194000D01*
X203915000Y-44934000D02*
X198675000Y-44934000D01*
D11*
%TO.C,U3*%
X222543200Y-109904468D02*
X217283200Y-109904468D01*
X217283200Y-109904468D02*
X217283200Y-105589132D01*
X217283200Y-105589132D02*
X222543200Y-105589132D01*
X222543200Y-105589132D02*
X222543200Y-109904468D01*
D12*
X218283200Y-109154468D02*
G75*
G03*
X218283200Y-109154468I-250000J0D01*
G01*
D13*
X218133200Y-112919900D02*
G75*
G03*
X218133200Y-112919900I-125000J0D01*
G01*
D10*
%TO.C,C5*%
X221323248Y-116184000D02*
X222745752Y-116184000D01*
X221323248Y-118004000D02*
X222745752Y-118004000D01*
%TO.C,C3*%
X179371000Y-114142000D02*
X179371000Y-103402000D01*
X184611000Y-114142000D02*
X184611000Y-103402000D01*
X179371000Y-114142000D02*
X184611000Y-114142000D01*
X179371000Y-103402000D02*
X184611000Y-103402000D01*
%TO.C,C2*%
X169195000Y-94662000D02*
X179935000Y-94662000D01*
X169195000Y-99902000D02*
X179935000Y-99902000D01*
X169195000Y-94662000D02*
X169195000Y-99902000D01*
X179935000Y-94662000D02*
X179935000Y-99902000D01*
%TO.C,C1*%
X157019000Y-112364000D02*
X157019000Y-101624000D01*
X162259000Y-112364000D02*
X162259000Y-101624000D01*
X157019000Y-112364000D02*
X162259000Y-112364000D01*
X157019000Y-101624000D02*
X162259000Y-101624000D01*
%TO.C,MK1*%
X165722359Y-96961905D02*
G75*
G02*
X164273000Y-96864867I-749359J-320095D01*
G01*
%TO.C,U1*%
X206010000Y-85792000D02*
X204360000Y-85792000D01*
X204360000Y-85792000D02*
X204360000Y-121472000D01*
X204360000Y-121472000D02*
X209660000Y-121472000D01*
X209660000Y-121472000D02*
X209660000Y-85792000D01*
X209660000Y-85792000D02*
X208010000Y-85792000D01*
X208010000Y-85792000D02*
G75*
G02*
X206010000Y-85792000I-1000000J0D01*
G01*
%TO.C,RV1*%
X157616000Y-98910000D02*
X153751000Y-98910000D01*
X149241000Y-98910000D02*
X145376000Y-98910000D01*
X157616000Y-88970000D02*
X153751000Y-88970000D01*
X149241000Y-88970000D02*
X145376000Y-88970000D01*
X157616000Y-98910000D02*
X157616000Y-97311000D01*
X157616000Y-95569000D02*
X157616000Y-94810000D01*
X157616000Y-93069000D02*
X157616000Y-92310000D01*
X157616000Y-90570000D02*
X157616000Y-88970000D01*
X145376000Y-98910000D02*
X145376000Y-88970000D01*
%TO.C,R6*%
X205402000Y-57886000D02*
X210142000Y-57886000D01*
X210142000Y-57886000D02*
X210142000Y-45746000D01*
X210142000Y-45746000D02*
X205402000Y-45746000D01*
X205402000Y-45746000D02*
X205402000Y-57886000D01*
X207772000Y-60536000D02*
X207772000Y-57886000D01*
X207772000Y-43096000D02*
X207772000Y-45746000D01*
%TO.C,R5*%
X217254000Y-45746000D02*
X212514000Y-45746000D01*
X212514000Y-45746000D02*
X212514000Y-57886000D01*
X212514000Y-57886000D02*
X217254000Y-57886000D01*
X217254000Y-57886000D02*
X217254000Y-45746000D01*
X214884000Y-43096000D02*
X214884000Y-45746000D01*
X214884000Y-60536000D02*
X214884000Y-57886000D01*
%TO.C,R3*%
X219118000Y-57886000D02*
X223858000Y-57886000D01*
X223858000Y-57886000D02*
X223858000Y-45746000D01*
X223858000Y-45746000D02*
X219118000Y-45746000D01*
X219118000Y-45746000D02*
X219118000Y-57886000D01*
X221488000Y-60536000D02*
X221488000Y-57886000D01*
X221488000Y-43096000D02*
X221488000Y-45746000D01*
%TO.C,R2*%
X208052000Y-78148000D02*
X208052000Y-82888000D01*
X208052000Y-82888000D02*
X220192000Y-82888000D01*
X220192000Y-82888000D02*
X220192000Y-78148000D01*
X220192000Y-78148000D02*
X208052000Y-78148000D01*
X205402000Y-80518000D02*
X208052000Y-80518000D01*
X222842000Y-80518000D02*
X220192000Y-80518000D01*
%TO.C,JP1*%
X197672000Y-84522000D02*
X195012000Y-84522000D01*
X197672000Y-89662000D02*
X197672000Y-84522000D01*
X195012000Y-89662000D02*
X195012000Y-84522000D01*
X197672000Y-89662000D02*
X195012000Y-89662000D01*
X197672000Y-90932000D02*
X197672000Y-92262000D01*
X197672000Y-92262000D02*
X196342000Y-92262000D01*
%TO.C,J2*%
X221898000Y-129286000D02*
G75*
G03*
X221898000Y-129286000I-1680000J0D01*
G01*
X224318000Y-136966000D02*
X224318000Y-126686000D01*
X222818000Y-136966000D02*
X222818000Y-126686000D01*
X217917000Y-136966000D02*
X217917000Y-126686000D01*
X214957000Y-136966000D02*
X214957000Y-126686000D01*
X224878000Y-136966000D02*
X224878000Y-126686000D01*
X214957000Y-136966000D02*
X224878000Y-136966000D01*
X214957000Y-126686000D02*
X224878000Y-126686000D01*
X219149000Y-128011000D02*
X219195000Y-128058000D01*
X221457000Y-130320000D02*
X221492000Y-130355000D01*
X218943000Y-128216000D02*
X218979000Y-128251000D01*
X221241000Y-130513000D02*
X221287000Y-130560000D01*
X224378000Y-137206000D02*
X225118000Y-137206000D01*
X225118000Y-137206000D02*
X225118000Y-136706000D01*
X221898253Y-134337195D02*
G75*
G02*
X221753000Y-135050000I-1680253J-28805D01*
G01*
X220901042Y-135901426D02*
G75*
G02*
X219534000Y-135901000I-683042J1535426D01*
G01*
X218682574Y-135049042D02*
G75*
G02*
X218683000Y-133682000I1535426J683042D01*
G01*
X219534958Y-132830574D02*
G75*
G02*
X220902000Y-132831000I683042J-1535426D01*
G01*
X221752756Y-133682682D02*
G75*
G02*
X221898000Y-134366000I-1534756J-683318D01*
G01*
%TO.C,C13*%
X186544748Y-78173000D02*
X188867252Y-78173000D01*
X186544748Y-81593000D02*
X188867252Y-81593000D01*
%TO.C,C12*%
X186523248Y-84269000D02*
X188845752Y-84269000D01*
X186523248Y-87689000D02*
X188845752Y-87689000D01*
%TO.C,C11*%
X207292000Y-130048000D02*
G75*
G03*
X207292000Y-130048000I-4120000J0D01*
G01*
X203172000Y-125968000D02*
X203172000Y-134128000D01*
X203212000Y-125968000D02*
X203212000Y-134128000D01*
X203252000Y-125968000D02*
X203252000Y-134128000D01*
X203292000Y-125969000D02*
X203292000Y-134127000D01*
X203332000Y-125971000D02*
X203332000Y-134125000D01*
X203372000Y-125972000D02*
X203372000Y-134124000D01*
X203412000Y-125974000D02*
X203412000Y-134122000D01*
X203452000Y-125977000D02*
X203452000Y-134119000D01*
X203492000Y-125980000D02*
X203492000Y-134116000D01*
X203532000Y-125983000D02*
X203532000Y-134113000D01*
X203572000Y-125987000D02*
X203572000Y-134109000D01*
X203612000Y-125991000D02*
X203612000Y-134105000D01*
X203652000Y-125996000D02*
X203652000Y-134100000D01*
X203692000Y-126000000D02*
X203692000Y-134096000D01*
X203732000Y-126006000D02*
X203732000Y-134090000D01*
X203772000Y-126011000D02*
X203772000Y-134085000D01*
X203812000Y-126018000D02*
X203812000Y-134078000D01*
X203852000Y-126024000D02*
X203852000Y-134072000D01*
X203893000Y-126031000D02*
X203893000Y-129008000D01*
X203893000Y-131088000D02*
X203893000Y-134065000D01*
X203933000Y-126038000D02*
X203933000Y-129008000D01*
X203933000Y-131088000D02*
X203933000Y-134058000D01*
X203973000Y-126046000D02*
X203973000Y-129008000D01*
X203973000Y-131088000D02*
X203973000Y-134050000D01*
X204013000Y-126054000D02*
X204013000Y-129008000D01*
X204013000Y-131088000D02*
X204013000Y-134042000D01*
X204053000Y-126063000D02*
X204053000Y-129008000D01*
X204053000Y-131088000D02*
X204053000Y-134033000D01*
X204093000Y-126072000D02*
X204093000Y-129008000D01*
X204093000Y-131088000D02*
X204093000Y-134024000D01*
X204133000Y-126081000D02*
X204133000Y-129008000D01*
X204133000Y-131088000D02*
X204133000Y-134015000D01*
X204173000Y-126091000D02*
X204173000Y-129008000D01*
X204173000Y-131088000D02*
X204173000Y-134005000D01*
X204213000Y-126101000D02*
X204213000Y-129008000D01*
X204213000Y-131088000D02*
X204213000Y-133995000D01*
X204253000Y-126112000D02*
X204253000Y-129008000D01*
X204253000Y-131088000D02*
X204253000Y-133984000D01*
X204293000Y-126123000D02*
X204293000Y-129008000D01*
X204293000Y-131088000D02*
X204293000Y-133973000D01*
X204333000Y-126134000D02*
X204333000Y-129008000D01*
X204333000Y-131088000D02*
X204333000Y-133962000D01*
X204373000Y-126146000D02*
X204373000Y-129008000D01*
X204373000Y-131088000D02*
X204373000Y-133950000D01*
X204413000Y-126159000D02*
X204413000Y-129008000D01*
X204413000Y-131088000D02*
X204413000Y-133937000D01*
X204453000Y-126171000D02*
X204453000Y-129008000D01*
X204453000Y-131088000D02*
X204453000Y-133925000D01*
X204493000Y-126185000D02*
X204493000Y-129008000D01*
X204493000Y-131088000D02*
X204493000Y-133911000D01*
X204533000Y-126198000D02*
X204533000Y-129008000D01*
X204533000Y-131088000D02*
X204533000Y-133898000D01*
X204573000Y-126213000D02*
X204573000Y-129008000D01*
X204573000Y-131088000D02*
X204573000Y-133883000D01*
X204613000Y-126227000D02*
X204613000Y-129008000D01*
X204613000Y-131088000D02*
X204613000Y-133869000D01*
X204653000Y-126243000D02*
X204653000Y-129008000D01*
X204653000Y-131088000D02*
X204653000Y-133853000D01*
X204693000Y-126258000D02*
X204693000Y-129008000D01*
X204693000Y-131088000D02*
X204693000Y-133838000D01*
X204733000Y-126274000D02*
X204733000Y-129008000D01*
X204733000Y-131088000D02*
X204733000Y-133822000D01*
X204773000Y-126291000D02*
X204773000Y-129008000D01*
X204773000Y-131088000D02*
X204773000Y-133805000D01*
X204813000Y-126308000D02*
X204813000Y-129008000D01*
X204813000Y-131088000D02*
X204813000Y-133788000D01*
X204853000Y-126326000D02*
X204853000Y-129008000D01*
X204853000Y-131088000D02*
X204853000Y-133770000D01*
X204893000Y-126344000D02*
X204893000Y-129008000D01*
X204893000Y-131088000D02*
X204893000Y-133752000D01*
X204933000Y-126362000D02*
X204933000Y-129008000D01*
X204933000Y-131088000D02*
X204933000Y-133734000D01*
X204973000Y-126382000D02*
X204973000Y-129008000D01*
X204973000Y-131088000D02*
X204973000Y-133714000D01*
X205013000Y-126401000D02*
X205013000Y-129008000D01*
X205013000Y-131088000D02*
X205013000Y-133695000D01*
X205053000Y-126421000D02*
X205053000Y-129008000D01*
X205053000Y-131088000D02*
X205053000Y-133675000D01*
X205093000Y-126442000D02*
X205093000Y-129008000D01*
X205093000Y-131088000D02*
X205093000Y-133654000D01*
X205133000Y-126464000D02*
X205133000Y-129008000D01*
X205133000Y-131088000D02*
X205133000Y-133632000D01*
X205173000Y-126486000D02*
X205173000Y-129008000D01*
X205173000Y-131088000D02*
X205173000Y-133610000D01*
X205213000Y-126508000D02*
X205213000Y-129008000D01*
X205213000Y-131088000D02*
X205213000Y-133588000D01*
X205253000Y-126531000D02*
X205253000Y-129008000D01*
X205253000Y-131088000D02*
X205253000Y-133565000D01*
X205293000Y-126555000D02*
X205293000Y-129008000D01*
X205293000Y-131088000D02*
X205293000Y-133541000D01*
X205333000Y-126579000D02*
X205333000Y-129008000D01*
X205333000Y-131088000D02*
X205333000Y-133517000D01*
X205373000Y-126604000D02*
X205373000Y-129008000D01*
X205373000Y-131088000D02*
X205373000Y-133492000D01*
X205413000Y-126630000D02*
X205413000Y-129008000D01*
X205413000Y-131088000D02*
X205413000Y-133466000D01*
X205453000Y-126656000D02*
X205453000Y-129008000D01*
X205453000Y-131088000D02*
X205453000Y-133440000D01*
X205493000Y-126683000D02*
X205493000Y-129008000D01*
X205493000Y-131088000D02*
X205493000Y-133413000D01*
X205533000Y-126710000D02*
X205533000Y-129008000D01*
X205533000Y-131088000D02*
X205533000Y-133386000D01*
X205573000Y-126739000D02*
X205573000Y-129008000D01*
X205573000Y-131088000D02*
X205573000Y-133357000D01*
X205613000Y-126768000D02*
X205613000Y-129008000D01*
X205613000Y-131088000D02*
X205613000Y-133328000D01*
X205653000Y-126798000D02*
X205653000Y-129008000D01*
X205653000Y-131088000D02*
X205653000Y-133298000D01*
X205693000Y-126828000D02*
X205693000Y-129008000D01*
X205693000Y-131088000D02*
X205693000Y-133268000D01*
X205733000Y-126859000D02*
X205733000Y-129008000D01*
X205733000Y-131088000D02*
X205733000Y-133237000D01*
X205773000Y-126892000D02*
X205773000Y-129008000D01*
X205773000Y-131088000D02*
X205773000Y-133204000D01*
X205813000Y-126924000D02*
X205813000Y-129008000D01*
X205813000Y-131088000D02*
X205813000Y-133172000D01*
X205853000Y-126958000D02*
X205853000Y-129008000D01*
X205853000Y-131088000D02*
X205853000Y-133138000D01*
X205893000Y-126993000D02*
X205893000Y-129008000D01*
X205893000Y-131088000D02*
X205893000Y-133103000D01*
X205933000Y-127029000D02*
X205933000Y-129008000D01*
X205933000Y-131088000D02*
X205933000Y-133067000D01*
X205973000Y-127065000D02*
X205973000Y-133031000D01*
X206013000Y-127103000D02*
X206013000Y-132993000D01*
X206053000Y-127141000D02*
X206053000Y-132955000D01*
X206093000Y-127181000D02*
X206093000Y-132915000D01*
X206133000Y-127222000D02*
X206133000Y-132874000D01*
X206173000Y-127264000D02*
X206173000Y-132832000D01*
X206213000Y-127307000D02*
X206213000Y-132789000D01*
X206253000Y-127351000D02*
X206253000Y-132745000D01*
X206293000Y-127397000D02*
X206293000Y-132699000D01*
X206333000Y-127444000D02*
X206333000Y-132652000D01*
X206373000Y-127492000D02*
X206373000Y-132604000D01*
X206413000Y-127543000D02*
X206413000Y-132553000D01*
X206453000Y-127594000D02*
X206453000Y-132502000D01*
X206493000Y-127648000D02*
X206493000Y-132448000D01*
X206533000Y-127703000D02*
X206533000Y-132393000D01*
X206573000Y-127761000D02*
X206573000Y-132335000D01*
X206613000Y-127820000D02*
X206613000Y-132276000D01*
X206653000Y-127882000D02*
X206653000Y-132214000D01*
X206693000Y-127946000D02*
X206693000Y-132150000D01*
X206733000Y-128014000D02*
X206733000Y-132082000D01*
X206773000Y-128084000D02*
X206773000Y-132012000D01*
X206813000Y-128158000D02*
X206813000Y-131938000D01*
X206853000Y-128235000D02*
X206853000Y-131861000D01*
X206893000Y-128317000D02*
X206893000Y-131779000D01*
X206933000Y-128403000D02*
X206933000Y-131693000D01*
X206973000Y-128496000D02*
X206973000Y-131600000D01*
X207013000Y-128595000D02*
X207013000Y-131501000D01*
X207053000Y-128702000D02*
X207053000Y-131394000D01*
X207093000Y-128819000D02*
X207093000Y-131277000D01*
X207133000Y-128950000D02*
X207133000Y-131146000D01*
X207173000Y-129100000D02*
X207173000Y-130996000D01*
X207213000Y-129280000D02*
X207213000Y-130816000D01*
X207253000Y-129515000D02*
X207253000Y-130581000D01*
X198762302Y-127733000D02*
X199562302Y-127733000D01*
X199162302Y-127333000D02*
X199162302Y-128133000D01*
%TO.C,C4*%
X201704000Y-110871000D02*
G75*
G03*
X201704000Y-110871000I-4120000J0D01*
G01*
X197584000Y-106791000D02*
X197584000Y-114951000D01*
X197624000Y-106791000D02*
X197624000Y-114951000D01*
X197664000Y-106791000D02*
X197664000Y-114951000D01*
X197704000Y-106792000D02*
X197704000Y-114950000D01*
X197744000Y-106794000D02*
X197744000Y-114948000D01*
X197784000Y-106795000D02*
X197784000Y-114947000D01*
X197824000Y-106797000D02*
X197824000Y-114945000D01*
X197864000Y-106800000D02*
X197864000Y-114942000D01*
X197904000Y-106803000D02*
X197904000Y-114939000D01*
X197944000Y-106806000D02*
X197944000Y-114936000D01*
X197984000Y-106810000D02*
X197984000Y-114932000D01*
X198024000Y-106814000D02*
X198024000Y-114928000D01*
X198064000Y-106819000D02*
X198064000Y-114923000D01*
X198104000Y-106823000D02*
X198104000Y-114919000D01*
X198144000Y-106829000D02*
X198144000Y-114913000D01*
X198184000Y-106834000D02*
X198184000Y-114908000D01*
X198224000Y-106841000D02*
X198224000Y-114901000D01*
X198264000Y-106847000D02*
X198264000Y-114895000D01*
X198305000Y-106854000D02*
X198305000Y-109831000D01*
X198305000Y-111911000D02*
X198305000Y-114888000D01*
X198345000Y-106861000D02*
X198345000Y-109831000D01*
X198345000Y-111911000D02*
X198345000Y-114881000D01*
X198385000Y-106869000D02*
X198385000Y-109831000D01*
X198385000Y-111911000D02*
X198385000Y-114873000D01*
X198425000Y-106877000D02*
X198425000Y-109831000D01*
X198425000Y-111911000D02*
X198425000Y-114865000D01*
X198465000Y-106886000D02*
X198465000Y-109831000D01*
X198465000Y-111911000D02*
X198465000Y-114856000D01*
X198505000Y-106895000D02*
X198505000Y-109831000D01*
X198505000Y-111911000D02*
X198505000Y-114847000D01*
X198545000Y-106904000D02*
X198545000Y-109831000D01*
X198545000Y-111911000D02*
X198545000Y-114838000D01*
X198585000Y-106914000D02*
X198585000Y-109831000D01*
X198585000Y-111911000D02*
X198585000Y-114828000D01*
X198625000Y-106924000D02*
X198625000Y-109831000D01*
X198625000Y-111911000D02*
X198625000Y-114818000D01*
X198665000Y-106935000D02*
X198665000Y-109831000D01*
X198665000Y-111911000D02*
X198665000Y-114807000D01*
X198705000Y-106946000D02*
X198705000Y-109831000D01*
X198705000Y-111911000D02*
X198705000Y-114796000D01*
X198745000Y-106957000D02*
X198745000Y-109831000D01*
X198745000Y-111911000D02*
X198745000Y-114785000D01*
X198785000Y-106969000D02*
X198785000Y-109831000D01*
X198785000Y-111911000D02*
X198785000Y-114773000D01*
X198825000Y-106982000D02*
X198825000Y-109831000D01*
X198825000Y-111911000D02*
X198825000Y-114760000D01*
X198865000Y-106994000D02*
X198865000Y-109831000D01*
X198865000Y-111911000D02*
X198865000Y-114748000D01*
X198905000Y-107008000D02*
X198905000Y-109831000D01*
X198905000Y-111911000D02*
X198905000Y-114734000D01*
X198945000Y-107021000D02*
X198945000Y-109831000D01*
X198945000Y-111911000D02*
X198945000Y-114721000D01*
X198985000Y-107036000D02*
X198985000Y-109831000D01*
X198985000Y-111911000D02*
X198985000Y-114706000D01*
X199025000Y-107050000D02*
X199025000Y-109831000D01*
X199025000Y-111911000D02*
X199025000Y-114692000D01*
X199065000Y-107066000D02*
X199065000Y-109831000D01*
X199065000Y-111911000D02*
X199065000Y-114676000D01*
X199105000Y-107081000D02*
X199105000Y-109831000D01*
X199105000Y-111911000D02*
X199105000Y-114661000D01*
X199145000Y-107097000D02*
X199145000Y-109831000D01*
X199145000Y-111911000D02*
X199145000Y-114645000D01*
X199185000Y-107114000D02*
X199185000Y-109831000D01*
X199185000Y-111911000D02*
X199185000Y-114628000D01*
X199225000Y-107131000D02*
X199225000Y-109831000D01*
X199225000Y-111911000D02*
X199225000Y-114611000D01*
X199265000Y-107149000D02*
X199265000Y-109831000D01*
X199265000Y-111911000D02*
X199265000Y-114593000D01*
X199305000Y-107167000D02*
X199305000Y-109831000D01*
X199305000Y-111911000D02*
X199305000Y-114575000D01*
X199345000Y-107185000D02*
X199345000Y-109831000D01*
X199345000Y-111911000D02*
X199345000Y-114557000D01*
X199385000Y-107205000D02*
X199385000Y-109831000D01*
X199385000Y-111911000D02*
X199385000Y-114537000D01*
X199425000Y-107224000D02*
X199425000Y-109831000D01*
X199425000Y-111911000D02*
X199425000Y-114518000D01*
X199465000Y-107244000D02*
X199465000Y-109831000D01*
X199465000Y-111911000D02*
X199465000Y-114498000D01*
X199505000Y-107265000D02*
X199505000Y-109831000D01*
X199505000Y-111911000D02*
X199505000Y-114477000D01*
X199545000Y-107287000D02*
X199545000Y-109831000D01*
X199545000Y-111911000D02*
X199545000Y-114455000D01*
X199585000Y-107309000D02*
X199585000Y-109831000D01*
X199585000Y-111911000D02*
X199585000Y-114433000D01*
X199625000Y-107331000D02*
X199625000Y-109831000D01*
X199625000Y-111911000D02*
X199625000Y-114411000D01*
X199665000Y-107354000D02*
X199665000Y-109831000D01*
X199665000Y-111911000D02*
X199665000Y-114388000D01*
X199705000Y-107378000D02*
X199705000Y-109831000D01*
X199705000Y-111911000D02*
X199705000Y-114364000D01*
X199745000Y-107402000D02*
X199745000Y-109831000D01*
X199745000Y-111911000D02*
X199745000Y-114340000D01*
X199785000Y-107427000D02*
X199785000Y-109831000D01*
X199785000Y-111911000D02*
X199785000Y-114315000D01*
X199825000Y-107453000D02*
X199825000Y-109831000D01*
X199825000Y-111911000D02*
X199825000Y-114289000D01*
X199865000Y-107479000D02*
X199865000Y-109831000D01*
X199865000Y-111911000D02*
X199865000Y-114263000D01*
X199905000Y-107506000D02*
X199905000Y-109831000D01*
X199905000Y-111911000D02*
X199905000Y-114236000D01*
X199945000Y-107533000D02*
X199945000Y-109831000D01*
X199945000Y-111911000D02*
X199945000Y-114209000D01*
X199985000Y-107562000D02*
X199985000Y-109831000D01*
X199985000Y-111911000D02*
X199985000Y-114180000D01*
X200025000Y-107591000D02*
X200025000Y-109831000D01*
X200025000Y-111911000D02*
X200025000Y-114151000D01*
X200065000Y-107621000D02*
X200065000Y-109831000D01*
X200065000Y-111911000D02*
X200065000Y-114121000D01*
X200105000Y-107651000D02*
X200105000Y-109831000D01*
X200105000Y-111911000D02*
X200105000Y-114091000D01*
X200145000Y-107682000D02*
X200145000Y-109831000D01*
X200145000Y-111911000D02*
X200145000Y-114060000D01*
X200185000Y-107715000D02*
X200185000Y-109831000D01*
X200185000Y-111911000D02*
X200185000Y-114027000D01*
X200225000Y-107747000D02*
X200225000Y-109831000D01*
X200225000Y-111911000D02*
X200225000Y-113995000D01*
X200265000Y-107781000D02*
X200265000Y-109831000D01*
X200265000Y-111911000D02*
X200265000Y-113961000D01*
X200305000Y-107816000D02*
X200305000Y-109831000D01*
X200305000Y-111911000D02*
X200305000Y-113926000D01*
X200345000Y-107852000D02*
X200345000Y-109831000D01*
X200345000Y-111911000D02*
X200345000Y-113890000D01*
X200385000Y-107888000D02*
X200385000Y-113854000D01*
X200425000Y-107926000D02*
X200425000Y-113816000D01*
X200465000Y-107964000D02*
X200465000Y-113778000D01*
X200505000Y-108004000D02*
X200505000Y-113738000D01*
X200545000Y-108045000D02*
X200545000Y-113697000D01*
X200585000Y-108087000D02*
X200585000Y-113655000D01*
X200625000Y-108130000D02*
X200625000Y-113612000D01*
X200665000Y-108174000D02*
X200665000Y-113568000D01*
X200705000Y-108220000D02*
X200705000Y-113522000D01*
X200745000Y-108267000D02*
X200745000Y-113475000D01*
X200785000Y-108315000D02*
X200785000Y-113427000D01*
X200825000Y-108366000D02*
X200825000Y-113376000D01*
X200865000Y-108417000D02*
X200865000Y-113325000D01*
X200905000Y-108471000D02*
X200905000Y-113271000D01*
X200945000Y-108526000D02*
X200945000Y-113216000D01*
X200985000Y-108584000D02*
X200985000Y-113158000D01*
X201025000Y-108643000D02*
X201025000Y-113099000D01*
X201065000Y-108705000D02*
X201065000Y-113037000D01*
X201105000Y-108769000D02*
X201105000Y-112973000D01*
X201145000Y-108837000D02*
X201145000Y-112905000D01*
X201185000Y-108907000D02*
X201185000Y-112835000D01*
X201225000Y-108981000D02*
X201225000Y-112761000D01*
X201265000Y-109058000D02*
X201265000Y-112684000D01*
X201305000Y-109140000D02*
X201305000Y-112602000D01*
X201345000Y-109226000D02*
X201345000Y-112516000D01*
X201385000Y-109319000D02*
X201385000Y-112423000D01*
X201425000Y-109418000D02*
X201425000Y-112324000D01*
X201465000Y-109525000D02*
X201465000Y-112217000D01*
X201505000Y-109642000D02*
X201505000Y-112100000D01*
X201545000Y-109773000D02*
X201545000Y-111969000D01*
X201585000Y-109923000D02*
X201585000Y-111819000D01*
X201625000Y-110103000D02*
X201625000Y-111639000D01*
X201665000Y-110338000D02*
X201665000Y-111404000D01*
X193174302Y-108556000D02*
X193974302Y-108556000D01*
X193574302Y-108156000D02*
X193574302Y-108956000D01*
%TO.C,SW1*%
D11*
X235827666Y-93717761D02*
X235970523Y-93765380D01*
X236208619Y-93765380D01*
X236303857Y-93717761D01*
X236351476Y-93670142D01*
X236399095Y-93574904D01*
X236399095Y-93479666D01*
X236351476Y-93384428D01*
X236303857Y-93336809D01*
X236208619Y-93289190D01*
X236018142Y-93241571D01*
X235922904Y-93193952D01*
X235875285Y-93146333D01*
X235827666Y-93051095D01*
X235827666Y-92955857D01*
X235875285Y-92860619D01*
X235922904Y-92813000D01*
X236018142Y-92765380D01*
X236256238Y-92765380D01*
X236399095Y-92813000D01*
X236732428Y-92765380D02*
X236970523Y-93765380D01*
X237161000Y-93051095D01*
X237351476Y-93765380D01*
X237589571Y-92765380D01*
X238494333Y-93765380D02*
X237922904Y-93765380D01*
X238208619Y-93765380D02*
X238208619Y-92765380D01*
X238113380Y-92908238D01*
X238018142Y-93003476D01*
X237922904Y-93051095D01*
%TO.C,R9*%
X219162333Y-101628380D02*
X218829000Y-101152190D01*
X218590904Y-101628380D02*
X218590904Y-100628380D01*
X218971857Y-100628380D01*
X219067095Y-100676000D01*
X219114714Y-100723619D01*
X219162333Y-100818857D01*
X219162333Y-100961714D01*
X219114714Y-101056952D01*
X219067095Y-101104571D01*
X218971857Y-101152190D01*
X218590904Y-101152190D01*
X219638523Y-101628380D02*
X219829000Y-101628380D01*
X219924238Y-101580761D01*
X219971857Y-101533142D01*
X220067095Y-101390285D01*
X220114714Y-101199809D01*
X220114714Y-100818857D01*
X220067095Y-100723619D01*
X220019476Y-100676000D01*
X219924238Y-100628380D01*
X219733761Y-100628380D01*
X219638523Y-100676000D01*
X219590904Y-100723619D01*
X219543285Y-100818857D01*
X219543285Y-101056952D01*
X219590904Y-101152190D01*
X219638523Y-101199809D01*
X219733761Y-101247428D01*
X219924238Y-101247428D01*
X220019476Y-101199809D01*
X220067095Y-101152190D01*
X220114714Y-101056952D01*
%TO.C,R8*%
X219416333Y-97056380D02*
X219083000Y-96580190D01*
X218844904Y-97056380D02*
X218844904Y-96056380D01*
X219225857Y-96056380D01*
X219321095Y-96104000D01*
X219368714Y-96151619D01*
X219416333Y-96246857D01*
X219416333Y-96389714D01*
X219368714Y-96484952D01*
X219321095Y-96532571D01*
X219225857Y-96580190D01*
X218844904Y-96580190D01*
X219987761Y-96484952D02*
X219892523Y-96437333D01*
X219844904Y-96389714D01*
X219797285Y-96294476D01*
X219797285Y-96246857D01*
X219844904Y-96151619D01*
X219892523Y-96104000D01*
X219987761Y-96056380D01*
X220178238Y-96056380D01*
X220273476Y-96104000D01*
X220321095Y-96151619D01*
X220368714Y-96246857D01*
X220368714Y-96294476D01*
X220321095Y-96389714D01*
X220273476Y-96437333D01*
X220178238Y-96484952D01*
X219987761Y-96484952D01*
X219892523Y-96532571D01*
X219844904Y-96580190D01*
X219797285Y-96675428D01*
X219797285Y-96865904D01*
X219844904Y-96961142D01*
X219892523Y-97008761D01*
X219987761Y-97056380D01*
X220178238Y-97056380D01*
X220273476Y-97008761D01*
X220321095Y-96961142D01*
X220368714Y-96865904D01*
X220368714Y-96675428D01*
X220321095Y-96580190D01*
X220273476Y-96532571D01*
X220178238Y-96484952D01*
%TO.C,Q1*%
X223170761Y-84665619D02*
X223075523Y-84618000D01*
X222980285Y-84522761D01*
X222837428Y-84379904D01*
X222742190Y-84332285D01*
X222646952Y-84332285D01*
X222694571Y-84570380D02*
X222599333Y-84522761D01*
X222504095Y-84427523D01*
X222456476Y-84237047D01*
X222456476Y-83903714D01*
X222504095Y-83713238D01*
X222599333Y-83618000D01*
X222694571Y-83570380D01*
X222885047Y-83570380D01*
X222980285Y-83618000D01*
X223075523Y-83713238D01*
X223123142Y-83903714D01*
X223123142Y-84237047D01*
X223075523Y-84427523D01*
X222980285Y-84522761D01*
X222885047Y-84570380D01*
X222694571Y-84570380D01*
X224075523Y-84570380D02*
X223504095Y-84570380D01*
X223789809Y-84570380D02*
X223789809Y-83570380D01*
X223694571Y-83713238D01*
X223599333Y-83808476D01*
X223504095Y-83856095D01*
%TO.C,RECORD*%
X235196333Y-101290380D02*
X234863000Y-100814190D01*
X234624904Y-101290380D02*
X234624904Y-100290380D01*
X235005857Y-100290380D01*
X235101095Y-100338000D01*
X235148714Y-100385619D01*
X235196333Y-100480857D01*
X235196333Y-100623714D01*
X235148714Y-100718952D01*
X235101095Y-100766571D01*
X235005857Y-100814190D01*
X234624904Y-100814190D01*
X235624904Y-100766571D02*
X235958238Y-100766571D01*
X236101095Y-101290380D02*
X235624904Y-101290380D01*
X235624904Y-100290380D01*
X236101095Y-100290380D01*
X237101095Y-101195142D02*
X237053476Y-101242761D01*
X236910619Y-101290380D01*
X236815380Y-101290380D01*
X236672523Y-101242761D01*
X236577285Y-101147523D01*
X236529666Y-101052285D01*
X236482047Y-100861809D01*
X236482047Y-100718952D01*
X236529666Y-100528476D01*
X236577285Y-100433238D01*
X236672523Y-100338000D01*
X236815380Y-100290380D01*
X236910619Y-100290380D01*
X237053476Y-100338000D01*
X237101095Y-100385619D01*
X237720142Y-100290380D02*
X237910619Y-100290380D01*
X238005857Y-100338000D01*
X238101095Y-100433238D01*
X238148714Y-100623714D01*
X238148714Y-100957047D01*
X238101095Y-101147523D01*
X238005857Y-101242761D01*
X237910619Y-101290380D01*
X237720142Y-101290380D01*
X237624904Y-101242761D01*
X237529666Y-101147523D01*
X237482047Y-100957047D01*
X237482047Y-100623714D01*
X237529666Y-100433238D01*
X237624904Y-100338000D01*
X237720142Y-100290380D01*
X239148714Y-101290380D02*
X238815380Y-100814190D01*
X238577285Y-101290380D02*
X238577285Y-100290380D01*
X238958238Y-100290380D01*
X239053476Y-100338000D01*
X239101095Y-100385619D01*
X239148714Y-100480857D01*
X239148714Y-100623714D01*
X239101095Y-100718952D01*
X239053476Y-100766571D01*
X238958238Y-100814190D01*
X238577285Y-100814190D01*
X239577285Y-101290380D02*
X239577285Y-100290380D01*
X239815380Y-100290380D01*
X239958238Y-100338000D01*
X240053476Y-100433238D01*
X240101095Y-100528476D01*
X240148714Y-100718952D01*
X240148714Y-100861809D01*
X240101095Y-101052285D01*
X240053476Y-101147523D01*
X239958238Y-101242761D01*
X239815380Y-101290380D01*
X239577285Y-101290380D01*
%TO.C,J1*%
X199564666Y-30858380D02*
X199564666Y-31572666D01*
X199517047Y-31715523D01*
X199421809Y-31810761D01*
X199278952Y-31858380D01*
X199183714Y-31858380D01*
X200564666Y-31858380D02*
X199993238Y-31858380D01*
X200278952Y-31858380D02*
X200278952Y-30858380D01*
X200183714Y-31001238D01*
X200088476Y-31096476D01*
X199993238Y-31144095D01*
%TO.C,U2*%
X169037095Y-100754380D02*
X169037095Y-101563904D01*
X169084714Y-101659142D01*
X169132333Y-101706761D01*
X169227571Y-101754380D01*
X169418047Y-101754380D01*
X169513285Y-101706761D01*
X169560904Y-101659142D01*
X169608523Y-101563904D01*
X169608523Y-100754380D01*
X170037095Y-100849619D02*
X170084714Y-100802000D01*
X170179952Y-100754380D01*
X170418047Y-100754380D01*
X170513285Y-100802000D01*
X170560904Y-100849619D01*
X170608523Y-100944857D01*
X170608523Y-101040095D01*
X170560904Y-101182952D01*
X169989476Y-101754380D01*
X170608523Y-101754380D01*
%TO.C,R7*%
X189952333Y-100708380D02*
X189619000Y-100232190D01*
X189380904Y-100708380D02*
X189380904Y-99708380D01*
X189761857Y-99708380D01*
X189857095Y-99756000D01*
X189904714Y-99803619D01*
X189952333Y-99898857D01*
X189952333Y-100041714D01*
X189904714Y-100136952D01*
X189857095Y-100184571D01*
X189761857Y-100232190D01*
X189380904Y-100232190D01*
X190285666Y-99708380D02*
X190952333Y-99708380D01*
X190523761Y-100708380D01*
%TO.C,R4*%
X206843333Y-142745380D02*
X206510000Y-142269190D01*
X206271904Y-142745380D02*
X206271904Y-141745380D01*
X206652857Y-141745380D01*
X206748095Y-141793000D01*
X206795714Y-141840619D01*
X206843333Y-141935857D01*
X206843333Y-142078714D01*
X206795714Y-142173952D01*
X206748095Y-142221571D01*
X206652857Y-142269190D01*
X206271904Y-142269190D01*
X207700476Y-142078714D02*
X207700476Y-142745380D01*
X207462380Y-141697761D02*
X207224285Y-142412047D01*
X207843333Y-142412047D01*
%TO.C,R1*%
X192529380Y-107608666D02*
X192053190Y-107942000D01*
X192529380Y-108180095D02*
X191529380Y-108180095D01*
X191529380Y-107799142D01*
X191577000Y-107703904D01*
X191624619Y-107656285D01*
X191719857Y-107608666D01*
X191862714Y-107608666D01*
X191957952Y-107656285D01*
X192005571Y-107703904D01*
X192053190Y-107799142D01*
X192053190Y-108180095D01*
X192529380Y-106656285D02*
X192529380Y-107227714D01*
X192529380Y-106942000D02*
X191529380Y-106942000D01*
X191672238Y-107037238D01*
X191767476Y-107132476D01*
X191815095Y-107227714D01*
%TO.C,U6*%
X195711380Y-70484904D02*
X196520904Y-70484904D01*
X196616142Y-70437285D01*
X196663761Y-70389666D01*
X196711380Y-70294428D01*
X196711380Y-70103952D01*
X196663761Y-70008714D01*
X196616142Y-69961095D01*
X196520904Y-69913476D01*
X195711380Y-69913476D01*
X195711380Y-69008714D02*
X195711380Y-69199190D01*
X195759000Y-69294428D01*
X195806619Y-69342047D01*
X195949476Y-69437285D01*
X196139952Y-69484904D01*
X196520904Y-69484904D01*
X196616142Y-69437285D01*
X196663761Y-69389666D01*
X196711380Y-69294428D01*
X196711380Y-69103952D01*
X196663761Y-69008714D01*
X196616142Y-68961095D01*
X196520904Y-68913476D01*
X196282809Y-68913476D01*
X196187571Y-68961095D01*
X196139952Y-69008714D01*
X196092333Y-69103952D01*
X196092333Y-69294428D01*
X196139952Y-69389666D01*
X196187571Y-69437285D01*
X196282809Y-69484904D01*
%TO.C,C6*%
X187726333Y-50970142D02*
X187678714Y-51017761D01*
X187535857Y-51065380D01*
X187440619Y-51065380D01*
X187297761Y-51017761D01*
X187202523Y-50922523D01*
X187154904Y-50827285D01*
X187107285Y-50636809D01*
X187107285Y-50493952D01*
X187154904Y-50303476D01*
X187202523Y-50208238D01*
X187297761Y-50113000D01*
X187440619Y-50065380D01*
X187535857Y-50065380D01*
X187678714Y-50113000D01*
X187726333Y-50160619D01*
X188583476Y-50065380D02*
X188393000Y-50065380D01*
X188297761Y-50113000D01*
X188250142Y-50160619D01*
X188154904Y-50303476D01*
X188107285Y-50493952D01*
X188107285Y-50874904D01*
X188154904Y-50970142D01*
X188202523Y-51017761D01*
X188297761Y-51065380D01*
X188488238Y-51065380D01*
X188583476Y-51017761D01*
X188631095Y-50970142D01*
X188678714Y-50874904D01*
X188678714Y-50636809D01*
X188631095Y-50541571D01*
X188583476Y-50493952D01*
X188488238Y-50446333D01*
X188297761Y-50446333D01*
X188202523Y-50493952D01*
X188154904Y-50541571D01*
X188107285Y-50636809D01*
%TO.C,C14*%
X196909142Y-56678142D02*
X196861523Y-56725761D01*
X196718666Y-56773380D01*
X196623428Y-56773380D01*
X196480571Y-56725761D01*
X196385333Y-56630523D01*
X196337714Y-56535285D01*
X196290095Y-56344809D01*
X196290095Y-56201952D01*
X196337714Y-56011476D01*
X196385333Y-55916238D01*
X196480571Y-55821000D01*
X196623428Y-55773380D01*
X196718666Y-55773380D01*
X196861523Y-55821000D01*
X196909142Y-55868619D01*
X197861523Y-56773380D02*
X197290095Y-56773380D01*
X197575809Y-56773380D02*
X197575809Y-55773380D01*
X197480571Y-55916238D01*
X197385333Y-56011476D01*
X197290095Y-56059095D01*
X198718666Y-56106714D02*
X198718666Y-56773380D01*
X198480571Y-55725761D02*
X198242476Y-56440047D01*
X198861523Y-56440047D01*
%TO.C,U4*%
X176276095Y-121582380D02*
X176276095Y-122391904D01*
X176323714Y-122487142D01*
X176371333Y-122534761D01*
X176466571Y-122582380D01*
X176657047Y-122582380D01*
X176752285Y-122534761D01*
X176799904Y-122487142D01*
X176847523Y-122391904D01*
X176847523Y-121582380D01*
X177752285Y-121915714D02*
X177752285Y-122582380D01*
X177514190Y-121534761D02*
X177276095Y-122249047D01*
X177895142Y-122249047D01*
%TO.C,C9*%
X191035333Y-121067142D02*
X190987714Y-121114761D01*
X190844857Y-121162380D01*
X190749619Y-121162380D01*
X190606761Y-121114761D01*
X190511523Y-121019523D01*
X190463904Y-120924285D01*
X190416285Y-120733809D01*
X190416285Y-120590952D01*
X190463904Y-120400476D01*
X190511523Y-120305238D01*
X190606761Y-120210000D01*
X190749619Y-120162380D01*
X190844857Y-120162380D01*
X190987714Y-120210000D01*
X191035333Y-120257619D01*
X191511523Y-121162380D02*
X191702000Y-121162380D01*
X191797238Y-121114761D01*
X191844857Y-121067142D01*
X191940095Y-120924285D01*
X191987714Y-120733809D01*
X191987714Y-120352857D01*
X191940095Y-120257619D01*
X191892476Y-120210000D01*
X191797238Y-120162380D01*
X191606761Y-120162380D01*
X191511523Y-120210000D01*
X191463904Y-120257619D01*
X191416285Y-120352857D01*
X191416285Y-120590952D01*
X191463904Y-120686190D01*
X191511523Y-120733809D01*
X191606761Y-120781428D01*
X191797238Y-120781428D01*
X191892476Y-120733809D01*
X191940095Y-120686190D01*
X191987714Y-120590952D01*
%TO.C,C10*%
X191679142Y-137735857D02*
X191726761Y-137783476D01*
X191774380Y-137926333D01*
X191774380Y-138021571D01*
X191726761Y-138164428D01*
X191631523Y-138259666D01*
X191536285Y-138307285D01*
X191345809Y-138354904D01*
X191202952Y-138354904D01*
X191012476Y-138307285D01*
X190917238Y-138259666D01*
X190822000Y-138164428D01*
X190774380Y-138021571D01*
X190774380Y-137926333D01*
X190822000Y-137783476D01*
X190869619Y-137735857D01*
X191774380Y-136783476D02*
X191774380Y-137354904D01*
X191774380Y-137069190D02*
X190774380Y-137069190D01*
X190917238Y-137164428D01*
X191012476Y-137259666D01*
X191060095Y-137354904D01*
X190774380Y-136164428D02*
X190774380Y-136069190D01*
X190822000Y-135973952D01*
X190869619Y-135926333D01*
X190964857Y-135878714D01*
X191155333Y-135831095D01*
X191393428Y-135831095D01*
X191583904Y-135878714D01*
X191679142Y-135926333D01*
X191726761Y-135973952D01*
X191774380Y-136069190D01*
X191774380Y-136164428D01*
X191726761Y-136259666D01*
X191679142Y-136307285D01*
X191583904Y-136354904D01*
X191393428Y-136402523D01*
X191155333Y-136402523D01*
X190964857Y-136354904D01*
X190869619Y-136307285D01*
X190822000Y-136259666D01*
X190774380Y-136164428D01*
%TO.C,C7*%
X190977533Y-122547342D02*
X190929914Y-122594961D01*
X190787057Y-122642580D01*
X190691819Y-122642580D01*
X190548961Y-122594961D01*
X190453723Y-122499723D01*
X190406104Y-122404485D01*
X190358485Y-122214009D01*
X190358485Y-122071152D01*
X190406104Y-121880676D01*
X190453723Y-121785438D01*
X190548961Y-121690200D01*
X190691819Y-121642580D01*
X190787057Y-121642580D01*
X190929914Y-121690200D01*
X190977533Y-121737819D01*
X191310866Y-121642580D02*
X191977533Y-121642580D01*
X191548961Y-122642580D01*
%TO.C,U5*%
X186182095Y-32853380D02*
X186182095Y-33662904D01*
X186229714Y-33758142D01*
X186277333Y-33805761D01*
X186372571Y-33853380D01*
X186563047Y-33853380D01*
X186658285Y-33805761D01*
X186705904Y-33758142D01*
X186753523Y-33662904D01*
X186753523Y-32853380D01*
X187705904Y-32853380D02*
X187229714Y-32853380D01*
X187182095Y-33329571D01*
X187229714Y-33281952D01*
X187324952Y-33234333D01*
X187563047Y-33234333D01*
X187658285Y-33281952D01*
X187705904Y-33329571D01*
X187753523Y-33424809D01*
X187753523Y-33662904D01*
X187705904Y-33758142D01*
X187658285Y-33805761D01*
X187563047Y-33853380D01*
X187324952Y-33853380D01*
X187229714Y-33805761D01*
X187182095Y-33758142D01*
%TO.C,C8*%
X205402142Y-39730666D02*
X205449761Y-39778285D01*
X205497380Y-39921142D01*
X205497380Y-40016380D01*
X205449761Y-40159238D01*
X205354523Y-40254476D01*
X205259285Y-40302095D01*
X205068809Y-40349714D01*
X204925952Y-40349714D01*
X204735476Y-40302095D01*
X204640238Y-40254476D01*
X204545000Y-40159238D01*
X204497380Y-40016380D01*
X204497380Y-39921142D01*
X204545000Y-39778285D01*
X204592619Y-39730666D01*
X204925952Y-39159238D02*
X204878333Y-39254476D01*
X204830714Y-39302095D01*
X204735476Y-39349714D01*
X204687857Y-39349714D01*
X204592619Y-39302095D01*
X204545000Y-39254476D01*
X204497380Y-39159238D01*
X204497380Y-38968761D01*
X204545000Y-38873523D01*
X204592619Y-38825904D01*
X204687857Y-38778285D01*
X204735476Y-38778285D01*
X204830714Y-38825904D01*
X204878333Y-38873523D01*
X204925952Y-38968761D01*
X204925952Y-39159238D01*
X204973571Y-39254476D01*
X205021190Y-39302095D01*
X205116428Y-39349714D01*
X205306904Y-39349714D01*
X205402142Y-39302095D01*
X205449761Y-39254476D01*
X205497380Y-39159238D01*
X205497380Y-38968761D01*
X205449761Y-38873523D01*
X205402142Y-38825904D01*
X205306904Y-38778285D01*
X205116428Y-38778285D01*
X205021190Y-38825904D01*
X204973571Y-38873523D01*
X204925952Y-38968761D01*
%TO.C,U3*%
X215035580Y-113034304D02*
X215845104Y-113034304D01*
X215940342Y-112986685D01*
X215987961Y-112939066D01*
X216035580Y-112843828D01*
X216035580Y-112653352D01*
X215987961Y-112558114D01*
X215940342Y-112510495D01*
X215845104Y-112462876D01*
X215035580Y-112462876D01*
X215035580Y-112081923D02*
X215035580Y-111462876D01*
X215416533Y-111796209D01*
X215416533Y-111653352D01*
X215464152Y-111558114D01*
X215511771Y-111510495D01*
X215607009Y-111462876D01*
X215845104Y-111462876D01*
X215940342Y-111510495D01*
X215987961Y-111558114D01*
X216035580Y-111653352D01*
X216035580Y-111939066D01*
X215987961Y-112034304D01*
X215940342Y-112081923D01*
%TO.C,C5*%
X221867833Y-115601142D02*
X221820214Y-115648761D01*
X221677357Y-115696380D01*
X221582119Y-115696380D01*
X221439261Y-115648761D01*
X221344023Y-115553523D01*
X221296404Y-115458285D01*
X221248785Y-115267809D01*
X221248785Y-115124952D01*
X221296404Y-114934476D01*
X221344023Y-114839238D01*
X221439261Y-114744000D01*
X221582119Y-114696380D01*
X221677357Y-114696380D01*
X221820214Y-114744000D01*
X221867833Y-114791619D01*
X222772595Y-114696380D02*
X222296404Y-114696380D01*
X222248785Y-115172571D01*
X222296404Y-115124952D01*
X222391642Y-115077333D01*
X222629738Y-115077333D01*
X222724976Y-115124952D01*
X222772595Y-115172571D01*
X222820214Y-115267809D01*
X222820214Y-115505904D01*
X222772595Y-115601142D01*
X222724976Y-115648761D01*
X222629738Y-115696380D01*
X222391642Y-115696380D01*
X222296404Y-115648761D01*
X222248785Y-115601142D01*
%TO.C,C3*%
X178598142Y-108938666D02*
X178645761Y-108986285D01*
X178693380Y-109129142D01*
X178693380Y-109224380D01*
X178645761Y-109367238D01*
X178550523Y-109462476D01*
X178455285Y-109510095D01*
X178264809Y-109557714D01*
X178121952Y-109557714D01*
X177931476Y-109510095D01*
X177836238Y-109462476D01*
X177741000Y-109367238D01*
X177693380Y-109224380D01*
X177693380Y-109129142D01*
X177741000Y-108986285D01*
X177788619Y-108938666D01*
X177693380Y-108605333D02*
X177693380Y-107986285D01*
X178074333Y-108319619D01*
X178074333Y-108176761D01*
X178121952Y-108081523D01*
X178169571Y-108033904D01*
X178264809Y-107986285D01*
X178502904Y-107986285D01*
X178598142Y-108033904D01*
X178645761Y-108081523D01*
X178693380Y-108176761D01*
X178693380Y-108462476D01*
X178645761Y-108557714D01*
X178598142Y-108605333D01*
%TO.C,C2*%
X174398333Y-93889142D02*
X174350714Y-93936761D01*
X174207857Y-93984380D01*
X174112619Y-93984380D01*
X173969761Y-93936761D01*
X173874523Y-93841523D01*
X173826904Y-93746285D01*
X173779285Y-93555809D01*
X173779285Y-93412952D01*
X173826904Y-93222476D01*
X173874523Y-93127238D01*
X173969761Y-93032000D01*
X174112619Y-92984380D01*
X174207857Y-92984380D01*
X174350714Y-93032000D01*
X174398333Y-93079619D01*
X174779285Y-93079619D02*
X174826904Y-93032000D01*
X174922142Y-92984380D01*
X175160238Y-92984380D01*
X175255476Y-93032000D01*
X175303095Y-93079619D01*
X175350714Y-93174857D01*
X175350714Y-93270095D01*
X175303095Y-93412952D01*
X174731666Y-93984380D01*
X175350714Y-93984380D01*
%TO.C,C1*%
X156246142Y-107160666D02*
X156293761Y-107208285D01*
X156341380Y-107351142D01*
X156341380Y-107446380D01*
X156293761Y-107589238D01*
X156198523Y-107684476D01*
X156103285Y-107732095D01*
X155912809Y-107779714D01*
X155769952Y-107779714D01*
X155579476Y-107732095D01*
X155484238Y-107684476D01*
X155389000Y-107589238D01*
X155341380Y-107446380D01*
X155341380Y-107351142D01*
X155389000Y-107208285D01*
X155436619Y-107160666D01*
X156341380Y-106208285D02*
X156341380Y-106779714D01*
X156341380Y-106494000D02*
X155341380Y-106494000D01*
X155484238Y-106589238D01*
X155579476Y-106684476D01*
X155627095Y-106779714D01*
%TO.C,MK1*%
X163505380Y-97641523D02*
X162505380Y-97641523D01*
X163219666Y-97308190D01*
X162505380Y-96974857D01*
X163505380Y-96974857D01*
X163505380Y-96498666D02*
X162505380Y-96498666D01*
X163505380Y-95927238D02*
X162933952Y-96355809D01*
X162505380Y-95927238D02*
X163076809Y-96498666D01*
X163505380Y-94974857D02*
X163505380Y-95546285D01*
X163505380Y-95260571D02*
X162505380Y-95260571D01*
X162648238Y-95355809D01*
X162743476Y-95451047D01*
X162791095Y-95546285D01*
%TO.C,U1*%
X206248095Y-84244380D02*
X206248095Y-85053904D01*
X206295714Y-85149142D01*
X206343333Y-85196761D01*
X206438571Y-85244380D01*
X206629047Y-85244380D01*
X206724285Y-85196761D01*
X206771904Y-85149142D01*
X206819523Y-85053904D01*
X206819523Y-84244380D01*
X207819523Y-85244380D02*
X207248095Y-85244380D01*
X207533809Y-85244380D02*
X207533809Y-84244380D01*
X207438571Y-84387238D01*
X207343333Y-84482476D01*
X207248095Y-84530095D01*
%TO.C,RV1*%
X151850761Y-102042380D02*
X151517428Y-101566190D01*
X151279333Y-102042380D02*
X151279333Y-101042380D01*
X151660285Y-101042380D01*
X151755523Y-101090000D01*
X151803142Y-101137619D01*
X151850761Y-101232857D01*
X151850761Y-101375714D01*
X151803142Y-101470952D01*
X151755523Y-101518571D01*
X151660285Y-101566190D01*
X151279333Y-101566190D01*
X152136476Y-101042380D02*
X152469809Y-102042380D01*
X152803142Y-101042380D01*
X153660285Y-102042380D02*
X153088857Y-102042380D01*
X153374571Y-102042380D02*
X153374571Y-101042380D01*
X153279333Y-101185238D01*
X153184095Y-101280476D01*
X153088857Y-101328095D01*
%TO.C,R6*%
X204854380Y-51982666D02*
X204378190Y-52316000D01*
X204854380Y-52554095D02*
X203854380Y-52554095D01*
X203854380Y-52173142D01*
X203902000Y-52077904D01*
X203949619Y-52030285D01*
X204044857Y-51982666D01*
X204187714Y-51982666D01*
X204282952Y-52030285D01*
X204330571Y-52077904D01*
X204378190Y-52173142D01*
X204378190Y-52554095D01*
X203854380Y-51125523D02*
X203854380Y-51316000D01*
X203902000Y-51411238D01*
X203949619Y-51458857D01*
X204092476Y-51554095D01*
X204282952Y-51601714D01*
X204663904Y-51601714D01*
X204759142Y-51554095D01*
X204806761Y-51506476D01*
X204854380Y-51411238D01*
X204854380Y-51220761D01*
X204806761Y-51125523D01*
X204759142Y-51077904D01*
X204663904Y-51030285D01*
X204425809Y-51030285D01*
X204330571Y-51077904D01*
X204282952Y-51125523D01*
X204235333Y-51220761D01*
X204235333Y-51411238D01*
X204282952Y-51506476D01*
X204330571Y-51554095D01*
X204425809Y-51601714D01*
%TO.C,R5*%
X212034380Y-52236666D02*
X211558190Y-52570000D01*
X212034380Y-52808095D02*
X211034380Y-52808095D01*
X211034380Y-52427142D01*
X211082000Y-52331904D01*
X211129619Y-52284285D01*
X211224857Y-52236666D01*
X211367714Y-52236666D01*
X211462952Y-52284285D01*
X211510571Y-52331904D01*
X211558190Y-52427142D01*
X211558190Y-52808095D01*
X211034380Y-51331904D02*
X211034380Y-51808095D01*
X211510571Y-51855714D01*
X211462952Y-51808095D01*
X211415333Y-51712857D01*
X211415333Y-51474761D01*
X211462952Y-51379523D01*
X211510571Y-51331904D01*
X211605809Y-51284285D01*
X211843904Y-51284285D01*
X211939142Y-51331904D01*
X211986761Y-51379523D01*
X212034380Y-51474761D01*
X212034380Y-51712857D01*
X211986761Y-51808095D01*
X211939142Y-51855714D01*
%TO.C,R3*%
X218570380Y-51982666D02*
X218094190Y-52316000D01*
X218570380Y-52554095D02*
X217570380Y-52554095D01*
X217570380Y-52173142D01*
X217618000Y-52077904D01*
X217665619Y-52030285D01*
X217760857Y-51982666D01*
X217903714Y-51982666D01*
X217998952Y-52030285D01*
X218046571Y-52077904D01*
X218094190Y-52173142D01*
X218094190Y-52554095D01*
X217570380Y-51649333D02*
X217570380Y-51030285D01*
X217951333Y-51363619D01*
X217951333Y-51220761D01*
X217998952Y-51125523D01*
X218046571Y-51077904D01*
X218141809Y-51030285D01*
X218379904Y-51030285D01*
X218475142Y-51077904D01*
X218522761Y-51125523D01*
X218570380Y-51220761D01*
X218570380Y-51506476D01*
X218522761Y-51601714D01*
X218475142Y-51649333D01*
%TO.C,R2*%
X213955333Y-77600380D02*
X213622000Y-77124190D01*
X213383904Y-77600380D02*
X213383904Y-76600380D01*
X213764857Y-76600380D01*
X213860095Y-76648000D01*
X213907714Y-76695619D01*
X213955333Y-76790857D01*
X213955333Y-76933714D01*
X213907714Y-77028952D01*
X213860095Y-77076571D01*
X213764857Y-77124190D01*
X213383904Y-77124190D01*
X214336285Y-76695619D02*
X214383904Y-76648000D01*
X214479142Y-76600380D01*
X214717238Y-76600380D01*
X214812476Y-76648000D01*
X214860095Y-76695619D01*
X214907714Y-76790857D01*
X214907714Y-76886095D01*
X214860095Y-77028952D01*
X214288666Y-77600380D01*
X214907714Y-77600380D01*
%TO.C,JP1*%
X195508666Y-92714380D02*
X195508666Y-93428666D01*
X195461047Y-93571523D01*
X195365809Y-93666761D01*
X195222952Y-93714380D01*
X195127714Y-93714380D01*
X195984857Y-93714380D02*
X195984857Y-92714380D01*
X196365809Y-92714380D01*
X196461047Y-92762000D01*
X196508666Y-92809619D01*
X196556285Y-92904857D01*
X196556285Y-93047714D01*
X196508666Y-93142952D01*
X196461047Y-93190571D01*
X196365809Y-93238190D01*
X195984857Y-93238190D01*
X197508666Y-93714380D02*
X196937238Y-93714380D01*
X197222952Y-93714380D02*
X197222952Y-92714380D01*
X197127714Y-92857238D01*
X197032476Y-92952476D01*
X196937238Y-93000095D01*
%TO.C,J2*%
X213410380Y-132159333D02*
X214124666Y-132159333D01*
X214267523Y-132206952D01*
X214362761Y-132302190D01*
X214410380Y-132445047D01*
X214410380Y-132540285D01*
X213505619Y-131730761D02*
X213458000Y-131683142D01*
X213410380Y-131587904D01*
X213410380Y-131349809D01*
X213458000Y-131254571D01*
X213505619Y-131206952D01*
X213600857Y-131159333D01*
X213696095Y-131159333D01*
X213838952Y-131206952D01*
X214410380Y-131778380D01*
X214410380Y-131159333D01*
%TO.C,C13*%
X187063142Y-77590142D02*
X187015523Y-77637761D01*
X186872666Y-77685380D01*
X186777428Y-77685380D01*
X186634571Y-77637761D01*
X186539333Y-77542523D01*
X186491714Y-77447285D01*
X186444095Y-77256809D01*
X186444095Y-77113952D01*
X186491714Y-76923476D01*
X186539333Y-76828238D01*
X186634571Y-76733000D01*
X186777428Y-76685380D01*
X186872666Y-76685380D01*
X187015523Y-76733000D01*
X187063142Y-76780619D01*
X188015523Y-77685380D02*
X187444095Y-77685380D01*
X187729809Y-77685380D02*
X187729809Y-76685380D01*
X187634571Y-76828238D01*
X187539333Y-76923476D01*
X187444095Y-76971095D01*
X188348857Y-76685380D02*
X188967904Y-76685380D01*
X188634571Y-77066333D01*
X188777428Y-77066333D01*
X188872666Y-77113952D01*
X188920285Y-77161571D01*
X188967904Y-77256809D01*
X188967904Y-77494904D01*
X188920285Y-77590142D01*
X188872666Y-77637761D01*
X188777428Y-77685380D01*
X188491714Y-77685380D01*
X188396476Y-77637761D01*
X188348857Y-77590142D01*
%TO.C,C12*%
X187041642Y-83686142D02*
X186994023Y-83733761D01*
X186851166Y-83781380D01*
X186755928Y-83781380D01*
X186613071Y-83733761D01*
X186517833Y-83638523D01*
X186470214Y-83543285D01*
X186422595Y-83352809D01*
X186422595Y-83209952D01*
X186470214Y-83019476D01*
X186517833Y-82924238D01*
X186613071Y-82829000D01*
X186755928Y-82781380D01*
X186851166Y-82781380D01*
X186994023Y-82829000D01*
X187041642Y-82876619D01*
X187994023Y-83781380D02*
X187422595Y-83781380D01*
X187708309Y-83781380D02*
X187708309Y-82781380D01*
X187613071Y-82924238D01*
X187517833Y-83019476D01*
X187422595Y-83067095D01*
X188374976Y-82876619D02*
X188422595Y-82829000D01*
X188517833Y-82781380D01*
X188755928Y-82781380D01*
X188851166Y-82829000D01*
X188898785Y-82876619D01*
X188946404Y-82971857D01*
X188946404Y-83067095D01*
X188898785Y-83209952D01*
X188327357Y-83781380D01*
X188946404Y-83781380D01*
%TO.C,C11*%
X202529142Y-125155142D02*
X202481523Y-125202761D01*
X202338666Y-125250380D01*
X202243428Y-125250380D01*
X202100571Y-125202761D01*
X202005333Y-125107523D01*
X201957714Y-125012285D01*
X201910095Y-124821809D01*
X201910095Y-124678952D01*
X201957714Y-124488476D01*
X202005333Y-124393238D01*
X202100571Y-124298000D01*
X202243428Y-124250380D01*
X202338666Y-124250380D01*
X202481523Y-124298000D01*
X202529142Y-124345619D01*
X203481523Y-125250380D02*
X202910095Y-125250380D01*
X203195809Y-125250380D02*
X203195809Y-124250380D01*
X203100571Y-124393238D01*
X203005333Y-124488476D01*
X202910095Y-124536095D01*
X204433904Y-125250380D02*
X203862476Y-125250380D01*
X204148190Y-125250380D02*
X204148190Y-124250380D01*
X204052952Y-124393238D01*
X203957714Y-124488476D01*
X203862476Y-124536095D01*
%TO.C,C4*%
X197417333Y-105978142D02*
X197369714Y-106025761D01*
X197226857Y-106073380D01*
X197131619Y-106073380D01*
X196988761Y-106025761D01*
X196893523Y-105930523D01*
X196845904Y-105835285D01*
X196798285Y-105644809D01*
X196798285Y-105501952D01*
X196845904Y-105311476D01*
X196893523Y-105216238D01*
X196988761Y-105121000D01*
X197131619Y-105073380D01*
X197226857Y-105073380D01*
X197369714Y-105121000D01*
X197417333Y-105168619D01*
X198274476Y-105406714D02*
X198274476Y-106073380D01*
X198036380Y-105025761D02*
X197798285Y-105740047D01*
X198417333Y-105740047D01*
%TD*%
M02*
