%TF.GenerationSoftware,KiCad,Pcbnew,(5.1.10)-1*%
%TF.CreationDate,2021-11-22T06:34:50+01:00*%
%TF.ProjectId,Looper,4c6f6f70-6572-42e6-9b69-6361645f7063,rev?*%
%TF.SameCoordinates,Original*%
%TF.FileFunction,Copper,L2,Bot*%
%TF.FilePolarity,Positive*%
%FSLAX46Y46*%
G04 Gerber Fmt 4.6, Leading zero omitted, Abs format (unit mm)*
G04 Created by KiCad (PCBNEW (5.1.10)-1) date 2021-11-22 06:34:50*
%MOMM*%
%LPD*%
G01*
G04 APERTURE LIST*
%TA.AperFunction,ComponentPad*%
%ADD10O,1.600000X1.600000*%
%TD*%
%TA.AperFunction,ComponentPad*%
%ADD11C,1.600000*%
%TD*%
%TA.AperFunction,ComponentPad*%
%ADD12C,1.500000*%
%TD*%
%TA.AperFunction,ComponentPad*%
%ADD13O,1.600000X2.400000*%
%TD*%
%TA.AperFunction,ComponentPad*%
%ADD14R,1.600000X2.400000*%
%TD*%
%TA.AperFunction,ComponentPad*%
%ADD15O,1.905000X2.000000*%
%TD*%
%TA.AperFunction,ComponentPad*%
%ADD16R,1.905000X2.000000*%
%TD*%
%TA.AperFunction,ComponentPad*%
%ADD17R,1.600000X1.600000*%
%TD*%
%TA.AperFunction,ComponentPad*%
%ADD18C,2.000000*%
%TD*%
%TA.AperFunction,WasherPad*%
%ADD19C,4.000000*%
%TD*%
%TA.AperFunction,ComponentPad*%
%ADD20C,1.800000*%
%TD*%
%TA.AperFunction,ComponentPad*%
%ADD21O,1.200000X1.200000*%
%TD*%
%TA.AperFunction,ComponentPad*%
%ADD22O,1.600000X1.200000*%
%TD*%
%TA.AperFunction,ComponentPad*%
%ADD23O,1.400000X1.400000*%
%TD*%
%TA.AperFunction,ComponentPad*%
%ADD24C,1.400000*%
%TD*%
%TA.AperFunction,ComponentPad*%
%ADD25O,1.700000X1.700000*%
%TD*%
%TA.AperFunction,ComponentPad*%
%ADD26R,1.700000X1.700000*%
%TD*%
%TA.AperFunction,ComponentPad*%
%ADD27C,2.600000*%
%TD*%
%TA.AperFunction,ComponentPad*%
%ADD28R,2.600000X2.600000*%
%TD*%
%TA.AperFunction,ComponentPad*%
%ADD29R,1.800000X1.800000*%
%TD*%
%TA.AperFunction,Conductor*%
%ADD30C,0.635000*%
%TD*%
G04 APERTURE END LIST*
D10*
%TO.P,R3,2*%
%TO.N,Net-(R3-Pad2)*%
X124333000Y-162052000D03*
D11*
%TO.P,R3,1*%
%TO.N,ALIM_RAM*%
X124333000Y-174752000D03*
%TD*%
D10*
%TO.P,R6,2*%
%TO.N,GND*%
X116459000Y-162052000D03*
D11*
%TO.P,R6,1*%
%TO.N,Net-(R5-Pad2)*%
X116459000Y-174752000D03*
%TD*%
D10*
%TO.P,R5,2*%
%TO.N,Net-(R5-Pad2)*%
X120523000Y-174752000D03*
D11*
%TO.P,R5,1*%
%TO.N,Net-(R3-Pad2)*%
X120523000Y-162052000D03*
%TD*%
D12*
%TO.P,Y1,2*%
%TO.N,OSC1*%
X114046000Y-130375000D03*
%TO.P,Y1,1*%
%TO.N,OSC2*%
X114046000Y-135255000D03*
%TD*%
D13*
%TO.P,U6,8*%
%TO.N,Net-(JP1-Pad3)*%
X178162000Y-107468000D03*
%TO.P,U6,4*%
%TO.N,Net-(U6-Pad3)*%
X170542000Y-99848000D03*
%TO.P,U6,7*%
%TO.N,ALIM_FILTER*%
X175622000Y-107468000D03*
%TO.P,U6,3*%
%TO.N,Net-(U6-Pad3)*%
X173082000Y-99848000D03*
%TO.P,U6,6*%
%TO.N,GND*%
X173082000Y-107468000D03*
%TO.P,U6,2*%
X175622000Y-99848000D03*
%TO.P,U6,5*%
%TO.N,FILTER_OUT*%
X170542000Y-107468000D03*
D14*
%TO.P,U6,1*%
%TO.N,Net-(C14-Pad1)*%
X178162000Y-99848000D03*
%TD*%
D15*
%TO.P,U5,3*%
%TO.N,ALIM_AUDIO*%
X117983000Y-151257000D03*
%TO.P,U5,2*%
%TO.N,GND*%
X120523000Y-151257000D03*
D16*
%TO.P,U5,1*%
%TO.N,ALIM_\u00B5C*%
X123063000Y-151257000D03*
%TD*%
D10*
%TO.P,U4,14*%
%TO.N,ALIM_AUDIO*%
X201549000Y-92075000D03*
%TO.P,U4,7*%
%TO.N,GND*%
X193929000Y-107315000D03*
%TO.P,U4,13*%
%TO.N,Net-(U4-Pad13)*%
X201549000Y-94615000D03*
%TO.P,U4,6*%
%TO.N,FILTER_OUT*%
X193929000Y-104775000D03*
%TO.P,U4,12*%
%TO.N,GND*%
X201549000Y-97155000D03*
%TO.P,U4,5*%
X193929000Y-102235000D03*
%TO.P,U4,11*%
X201549000Y-99695000D03*
%TO.P,U4,4*%
X193929000Y-99695000D03*
%TO.P,U4,10*%
X201549000Y-102235000D03*
%TO.P,U4,3*%
X193929000Y-97155000D03*
%TO.P,U4,9*%
%TO.N,Net-(U4-Pad9)*%
X201549000Y-104775000D03*
%TO.P,U4,2*%
%TO.N,GND*%
X193929000Y-94615000D03*
%TO.P,U4,8*%
%TO.N,Net-(C11-Pad1)*%
X201549000Y-107315000D03*
D17*
%TO.P,U4,1*%
%TO.N,Net-(C7-Pad2)*%
X193929000Y-92075000D03*
%TD*%
D10*
%TO.P,U2,14*%
%TO.N,ALIM_AUDIO*%
X180721000Y-131699000D03*
%TO.P,U2,7*%
%TO.N,GND*%
X165481000Y-124079000D03*
%TO.P,U2,13*%
%TO.N,Net-(U2-Pad13)*%
X178181000Y-131699000D03*
%TO.P,U2,6*%
%TO.N,FILTER_OUT*%
X168021000Y-124079000D03*
%TO.P,U2,12*%
%TO.N,GND*%
X175641000Y-131699000D03*
%TO.P,U2,5*%
X170561000Y-124079000D03*
%TO.P,U2,11*%
X173101000Y-131699000D03*
%TO.P,U2,4*%
X173101000Y-124079000D03*
%TO.P,U2,10*%
X170561000Y-131699000D03*
%TO.P,U2,3*%
X175641000Y-124079000D03*
%TO.P,U2,9*%
%TO.N,Net-(U2-Pad9)*%
X168021000Y-131699000D03*
%TO.P,U2,2*%
%TO.N,GND*%
X178181000Y-124079000D03*
%TO.P,U2,8*%
%TO.N,Net-(C4-Pad1)*%
X165481000Y-131699000D03*
D17*
%TO.P,U2,1*%
%TO.N,Net-(C1-Pad2)*%
X180721000Y-124079000D03*
%TD*%
D10*
%TO.P,U1,28*%
%TO.N,RECORD_LED*%
X125730000Y-110363000D03*
%TO.P,U1,14*%
%TO.N,Net-(U1-Pad14)*%
X118110000Y-143383000D03*
%TO.P,U1,27*%
%TO.N,RECORD_BUTTON*%
X125730000Y-112903000D03*
%TO.P,U1,13*%
%TO.N,Net-(U1-Pad13)*%
X118110000Y-140843000D03*
%TO.P,U1,26*%
%TO.N,Net-(U1-Pad26)*%
X125730000Y-115443000D03*
%TO.P,U1,12*%
%TO.N,Net-(U1-Pad12)*%
X118110000Y-138303000D03*
%TO.P,U1,25*%
%TO.N,Net-(U1-Pad25)*%
X125730000Y-117983000D03*
%TO.P,U1,11*%
%TO.N,Net-(U1-Pad11)*%
X118110000Y-135763000D03*
%TO.P,U1,24*%
%TO.N,AUDIO_OUT*%
X125730000Y-120523000D03*
%TO.P,U1,10*%
%TO.N,OSC2*%
X118110000Y-133223000D03*
%TO.P,U1,23*%
%TO.N,AUDIO*%
X125730000Y-123063000D03*
%TO.P,U1,9*%
%TO.N,OSC1*%
X118110000Y-130683000D03*
%TO.P,U1,22*%
%TO.N,GND*%
X125730000Y-125603000D03*
%TO.P,U1,8*%
X118110000Y-128143000D03*
%TO.P,U1,21*%
%TO.N,Net-(U1-Pad21)*%
X125730000Y-128143000D03*
%TO.P,U1,7*%
%TO.N,ALIM_\u00B5C*%
X118110000Y-125603000D03*
%TO.P,U1,20*%
%TO.N,Net-(U1-Pad20)*%
X125730000Y-130683000D03*
%TO.P,U1,6*%
%TO.N,Net-(U1-Pad6)*%
X118110000Y-123063000D03*
%TO.P,U1,19*%
%TO.N,Net-(U1-Pad19)*%
X125730000Y-133223000D03*
%TO.P,U1,5*%
%TO.N,Net-(U1-Pad5)*%
X118110000Y-120523000D03*
%TO.P,U1,18*%
%TO.N,Net-(U1-Pad18)*%
X125730000Y-135763000D03*
%TO.P,U1,4*%
%TO.N,Net-(U1-Pad4)*%
X118110000Y-117983000D03*
%TO.P,U1,17*%
%TO.N,Net-(U1-Pad17)*%
X125730000Y-138303000D03*
%TO.P,U1,3*%
%TO.N,PITCH_CONTROL*%
X118110000Y-115443000D03*
%TO.P,U1,16*%
%TO.N,Net-(U1-Pad16)*%
X125730000Y-140843000D03*
%TO.P,U1,2*%
%TO.N,SPEED_CONTROL*%
X118110000Y-112903000D03*
%TO.P,U1,15*%
%TO.N,Net-(U1-Pad15)*%
X125730000Y-143383000D03*
D17*
%TO.P,U1,1*%
%TO.N,Net-(U1-Pad1)*%
X118110000Y-110363000D03*
%TD*%
D18*
%TO.P,RECORD,1*%
%TO.N,RECORD_BUTTON*%
X138026000Y-117729000D03*
%TO.P,RECORD,2*%
%TO.N,ALIM_\u00B5C*%
X138026000Y-113229000D03*
%TO.P,RECORD,1*%
%TO.N,RECORD_BUTTON*%
X144526000Y-117729000D03*
%TO.P,RECORD,2*%
%TO.N,ALIM_\u00B5C*%
X144526000Y-113229000D03*
%TD*%
D19*
%TO.P,RV3,*%
%TO.N,*%
X77328000Y-111130000D03*
X77328000Y-119930000D03*
D20*
%TO.P,RV3,1*%
%TO.N,ALIM_\u00B5C*%
X84328000Y-113030000D03*
%TO.P,RV3,2*%
%TO.N,SPEED_CONTROL*%
X84328000Y-115530000D03*
%TO.P,RV3,3*%
%TO.N,Net-(R11-Pad1)*%
X84328000Y-118030000D03*
%TD*%
D19*
%TO.P,RV2,*%
%TO.N,*%
X77328000Y-125227000D03*
X77328000Y-134027000D03*
D20*
%TO.P,RV2,1*%
%TO.N,ALIM_\u00B5C*%
X84328000Y-127127000D03*
%TO.P,RV2,2*%
%TO.N,PITCH_CONTROL*%
X84328000Y-129627000D03*
%TO.P,RV2,3*%
%TO.N,Net-(R10-Pad1)*%
X84328000Y-132127000D03*
%TD*%
D19*
%TO.P,RV1,*%
%TO.N,*%
X149103000Y-148859000D03*
X157903000Y-148859000D03*
D20*
%TO.P,RV1,1*%
%TO.N,Net-(MK1-Pad2)*%
X151003000Y-141859000D03*
%TO.P,RV1,2*%
%TO.N,AUDIO_OUT*%
X153503000Y-141859000D03*
%TO.P,RV1,3*%
%TO.N,GND*%
X156003000Y-141859000D03*
%TD*%
D10*
%TO.P,R11,2*%
%TO.N,GND*%
X99314000Y-118110000D03*
D11*
%TO.P,R11,1*%
%TO.N,Net-(R11-Pad1)*%
X86614000Y-118110000D03*
%TD*%
D10*
%TO.P,R10,2*%
%TO.N,GND*%
X99441000Y-132207000D03*
D11*
%TO.P,R10,1*%
%TO.N,Net-(R10-Pad1)*%
X86741000Y-132207000D03*
%TD*%
D10*
%TO.P,R9,2*%
%TO.N,GND*%
X147955000Y-105410000D03*
D11*
%TO.P,R9,1*%
%TO.N,RECORD_BUTTON*%
X147955000Y-118110000D03*
%TD*%
D10*
%TO.P,R8,2*%
%TO.N,GND*%
X149352000Y-98298000D03*
D11*
%TO.P,R8,1*%
%TO.N,Net-(D1-Pad1)*%
X136652000Y-98298000D03*
%TD*%
D10*
%TO.P,R7,2*%
%TO.N,FILTER_OUT*%
X169164000Y-120904000D03*
D11*
%TO.P,R7,1*%
%TO.N,Net-(JP1-Pad1)*%
X181864000Y-120904000D03*
%TD*%
D10*
%TO.P,R4,2*%
%TO.N,Net-(C10-Pad1)*%
X201168000Y-123317000D03*
D11*
%TO.P,R4,1*%
%TO.N,Net-(C11-Pad1)*%
X201168000Y-110617000D03*
%TD*%
D10*
%TO.P,R2,2*%
%TO.N,ALIM_RAM*%
X131191000Y-140335000D03*
D11*
%TO.P,R2,1*%
%TO.N,ALIM_\u00B5C*%
X131191000Y-153035000D03*
%TD*%
D10*
%TO.P,R1,2*%
%TO.N,Net-(C3-Pad1)*%
X161798000Y-117348000D03*
D11*
%TO.P,R1,1*%
%TO.N,Net-(C4-Pad1)*%
X161798000Y-130048000D03*
%TD*%
D21*
%TO.P,Q1,3*%
%TO.N,ALIM_\u00B5C*%
X134620000Y-108585000D03*
%TO.P,Q1,2*%
%TO.N,RECORD_LED*%
X133350000Y-109855000D03*
D22*
%TO.P,Q1,1*%
%TO.N,Net-(D1-Pad2)*%
X132080000Y-108585000D03*
%TD*%
D23*
%TO.P,MK1,2*%
%TO.N,Net-(MK1-Pad2)*%
X164084000Y-145156000D03*
D24*
%TO.P,MK1,1*%
%TO.N,GND*%
X164084000Y-143256000D03*
%TD*%
D25*
%TO.P,JP1,3*%
%TO.N,Net-(JP1-Pad3)*%
X186309000Y-117729000D03*
%TO.P,JP1,2*%
%TO.N,AUDIO_OUT*%
X188849000Y-117729000D03*
D26*
%TO.P,JP1,1*%
%TO.N,Net-(JP1-Pad1)*%
X191389000Y-117729000D03*
%TD*%
D27*
%TO.P,J2,2*%
%TO.N,Net-(C11-Pad2)*%
X229743000Y-109347000D03*
D28*
%TO.P,J2,1*%
%TO.N,GND*%
X229743000Y-114427000D03*
%TD*%
D27*
%TO.P,J1,2*%
%TO.N,GND*%
X131064000Y-176276000D03*
D28*
%TO.P,J1,1*%
%TO.N,ALIM_AUDIO*%
X136144000Y-176276000D03*
%TD*%
D20*
%TO.P,D1,2*%
%TO.N,Net-(D1-Pad2)*%
X132207000Y-100965000D03*
D29*
%TO.P,D1,1*%
%TO.N,Net-(D1-Pad1)*%
X132207000Y-98425000D03*
%TD*%
D18*
%TO.P,C16,2*%
%TO.N,GND*%
X107562000Y-141605000D03*
%TO.P,C16,1*%
%TO.N,OSC2*%
X115062000Y-141605000D03*
%TD*%
%TO.P,C15,2*%
%TO.N,GND*%
X106934000Y-136151000D03*
%TO.P,C15,1*%
%TO.N,OSC1*%
X106934000Y-128651000D03*
%TD*%
%TO.P,C14,2*%
%TO.N,GND*%
X170554000Y-95377000D03*
%TO.P,C14,1*%
%TO.N,Net-(C14-Pad1)*%
X178054000Y-95377000D03*
%TD*%
D11*
%TO.P,C11,2*%
%TO.N,Net-(C11-Pad2)*%
X220797000Y-109728000D03*
D17*
%TO.P,C11,1*%
%TO.N,Net-(C11-Pad1)*%
X217297000Y-109728000D03*
%TD*%
D18*
%TO.P,C10,2*%
%TO.N,GND*%
X212732000Y-122174000D03*
%TO.P,C10,1*%
%TO.N,Net-(C10-Pad1)*%
X205232000Y-122174000D03*
%TD*%
%TO.P,C9,2*%
%TO.N,GND*%
X206375000Y-99575000D03*
%TO.P,C9,1*%
%TO.N,ALIM_AUDIO*%
X206375000Y-92075000D03*
%TD*%
%TO.P,C8,2*%
%TO.N,GND*%
X112141000Y-148456000D03*
%TO.P,C8,1*%
%TO.N,ALIM_AUDIO*%
X112141000Y-155956000D03*
%TD*%
%TO.P,C7,2*%
%TO.N,Net-(C7-Pad2)*%
X189611000Y-91687000D03*
%TO.P,C7,1*%
%TO.N,GND*%
X189611000Y-99187000D03*
%TD*%
%TO.P,C6,2*%
%TO.N,GND*%
X116833000Y-158115000D03*
%TO.P,C6,1*%
%TO.N,ALIM_\u00B5C*%
X124333000Y-158115000D03*
%TD*%
D11*
%TO.P,C4,2*%
%TO.N,AUDIO*%
X132715000Y-127960000D03*
D17*
%TO.P,C4,1*%
%TO.N,Net-(C4-Pad1)*%
X132715000Y-124460000D03*
%TD*%
D18*
%TO.P,C3,2*%
%TO.N,GND*%
X157099000Y-125483000D03*
%TO.P,C3,1*%
%TO.N,Net-(C3-Pad1)*%
X157099000Y-117983000D03*
%TD*%
%TO.P,C2,2*%
%TO.N,GND*%
X186309000Y-124072000D03*
%TO.P,C2,1*%
%TO.N,ALIM_AUDIO*%
X186309000Y-131572000D03*
%TD*%
%TO.P,C1,2*%
%TO.N,Net-(C1-Pad2)*%
X183649000Y-112141000D03*
%TO.P,C1,1*%
%TO.N,GND*%
X176149000Y-112141000D03*
%TD*%
D30*
%TO.N,Net-(C1-Pad2)*%
X180721000Y-124079000D02*
X179705000Y-123063000D01*
X179705000Y-116085000D02*
X183649000Y-112141000D01*
X179705000Y-123063000D02*
X179705000Y-116085000D01*
%TO.N,GND*%
X116833000Y-154947000D02*
X120523000Y-151257000D01*
X116833000Y-158115000D02*
X116833000Y-154947000D01*
X116078000Y-162433000D02*
X116459000Y-162052000D01*
X116459000Y-158489000D02*
X116833000Y-158115000D01*
X116459000Y-162052000D02*
X116459000Y-158489000D01*
X117722000Y-148456000D02*
X112141000Y-148456000D01*
X120523000Y-151257000D02*
X117722000Y-148456000D01*
X99314000Y-128531000D02*
X99314000Y-118110000D01*
X106934000Y-136151000D02*
X99314000Y-128531000D01*
X99441000Y-132207000D02*
X99441000Y-133350000D01*
X102242000Y-136151000D02*
X106934000Y-136151000D01*
X99441000Y-133350000D02*
X102242000Y-136151000D01*
X164084000Y-143256000D02*
X165481000Y-143256000D01*
X170561000Y-138176000D02*
X170561000Y-131699000D01*
X165481000Y-143256000D02*
X170561000Y-138176000D01*
X147955000Y-99695000D02*
X149352000Y-98298000D01*
X147955000Y-105410000D02*
X147955000Y-99695000D01*
X157099000Y-125483000D02*
X151130000Y-119514000D01*
X151130000Y-108585000D02*
X147955000Y-105410000D01*
X151130000Y-119514000D02*
X151130000Y-108585000D01*
X186309000Y-124072000D02*
X186316000Y-124072000D01*
X186316000Y-124072000D02*
X183388000Y-127000000D01*
X181102000Y-127000000D02*
X178181000Y-124079000D01*
X183388000Y-127000000D02*
X181102000Y-127000000D01*
X175641000Y-131699000D02*
X173101000Y-131699000D01*
X173101000Y-131699000D02*
X170561000Y-131699000D01*
X170561000Y-131699000D02*
X170561000Y-124079000D01*
X170561000Y-124079000D02*
X173101000Y-124079000D01*
X173101000Y-124079000D02*
X175641000Y-124079000D01*
X178181000Y-124079000D02*
X175641000Y-124079000D01*
X173082000Y-102388000D02*
X175622000Y-99848000D01*
X173082000Y-107468000D02*
X173082000Y-102388000D01*
X171151000Y-95377000D02*
X170554000Y-95377000D01*
X175622000Y-99848000D02*
X171151000Y-95377000D01*
X206255000Y-99695000D02*
X206375000Y-99575000D01*
X201549000Y-99695000D02*
X206255000Y-99695000D01*
X201549000Y-97155000D02*
X201549000Y-99695000D01*
X201549000Y-99695000D02*
X201549000Y-102235000D01*
X193929000Y-94615000D02*
X193929000Y-97155000D01*
X193929000Y-97155000D02*
X193929000Y-99695000D01*
X193929000Y-99695000D02*
X193929000Y-102235000D01*
X176174000Y-102235000D02*
X193929000Y-102235000D01*
X175622000Y-101683000D02*
X176174000Y-102235000D01*
X175622000Y-99848000D02*
X175622000Y-101683000D01*
X193421000Y-99187000D02*
X193929000Y-99695000D01*
X189611000Y-99187000D02*
X193421000Y-99187000D01*
X221996000Y-122174000D02*
X229743000Y-114427000D01*
X212732000Y-122174000D02*
X221996000Y-122174000D01*
X162687000Y-141859000D02*
X164084000Y-143256000D01*
X156003000Y-141859000D02*
X162687000Y-141859000D01*
X164077000Y-125483000D02*
X157099000Y-125483000D01*
X165481000Y-124079000D02*
X164077000Y-125483000D01*
X165481000Y-124079000D02*
X167513000Y-126111000D01*
X168529000Y-126111000D02*
X170561000Y-124079000D01*
X167513000Y-126111000D02*
X168529000Y-126111000D01*
X106934000Y-140977000D02*
X107562000Y-141605000D01*
X106934000Y-136151000D02*
X106934000Y-140977000D01*
X112141000Y-146184000D02*
X107562000Y-141605000D01*
X112141000Y-148456000D02*
X112141000Y-146184000D01*
X193929000Y-107315000D02*
X195580000Y-105664000D01*
X195580000Y-105664000D02*
X195580000Y-102743000D01*
X195072000Y-102235000D02*
X193929000Y-102235000D01*
X195580000Y-102743000D02*
X195072000Y-102235000D01*
%TO.N,ALIM_AUDIO*%
X116840000Y-151257000D02*
X117983000Y-151257000D01*
X112141000Y-155956000D02*
X116840000Y-151257000D01*
X136144000Y-176276000D02*
X131445000Y-180975000D01*
X131445000Y-180975000D02*
X112014000Y-180975000D01*
X112014000Y-180975000D02*
X110363000Y-179324000D01*
X110363000Y-157734000D02*
X112141000Y-155956000D01*
X110363000Y-179324000D02*
X110363000Y-157734000D01*
X136144000Y-176276000D02*
X152400000Y-176276000D01*
X180721000Y-147955000D02*
X180721000Y-131699000D01*
X152400000Y-176276000D02*
X180721000Y-147955000D01*
X180848000Y-131572000D02*
X180721000Y-131699000D01*
X186309000Y-131572000D02*
X180848000Y-131572000D01*
X186309000Y-131572000D02*
X186309000Y-129159000D01*
X186309000Y-129159000D02*
X197104000Y-118364000D01*
X197104000Y-118364000D02*
X197104000Y-93091000D01*
X198120000Y-92075000D02*
X201549000Y-92075000D01*
X197104000Y-93091000D02*
X198120000Y-92075000D01*
X201549000Y-92075000D02*
X206375000Y-92075000D01*
%TO.N,Net-(C3-Pad1)*%
X161163000Y-117983000D02*
X161798000Y-117348000D01*
X157099000Y-117983000D02*
X161163000Y-117983000D01*
%TO.N,AUDIO*%
X127818000Y-123063000D02*
X132715000Y-127960000D01*
X125730000Y-123063000D02*
X127818000Y-123063000D01*
%TO.N,Net-(C4-Pad1)*%
X132715000Y-124460000D02*
X152146000Y-124460000D01*
X159385000Y-131699000D02*
X165481000Y-131699000D01*
X152146000Y-124460000D02*
X159385000Y-131699000D01*
X163830000Y-130048000D02*
X165481000Y-131699000D01*
X161798000Y-130048000D02*
X163830000Y-130048000D01*
%TO.N,ALIM_\u00B5C*%
X123063000Y-130556000D02*
X118110000Y-125603000D01*
X123063000Y-151257000D02*
X123063000Y-130556000D01*
X124333000Y-152527000D02*
X123063000Y-151257000D01*
X124333000Y-158115000D02*
X124333000Y-152527000D01*
X84328000Y-113030000D02*
X99695000Y-113030000D01*
X112268000Y-125603000D02*
X118110000Y-125603000D01*
X99695000Y-113030000D02*
X112268000Y-125603000D01*
X84328000Y-113030000D02*
X81534000Y-115824000D01*
X81534000Y-124333000D02*
X84328000Y-127127000D01*
X81534000Y-115824000D02*
X81534000Y-124333000D01*
X129413000Y-151257000D02*
X131191000Y-153035000D01*
X123063000Y-151257000D02*
X129413000Y-151257000D01*
X138026000Y-111991000D02*
X134620000Y-108585000D01*
X138026000Y-113229000D02*
X138026000Y-111991000D01*
X144526000Y-113229000D02*
X138026000Y-113229000D01*
%TO.N,Net-(C7-Pad2)*%
X193541000Y-91687000D02*
X193929000Y-92075000D01*
X189611000Y-91687000D02*
X193541000Y-91687000D01*
%TO.N,Net-(C10-Pad1)*%
X202311000Y-122174000D02*
X201168000Y-123317000D01*
X205232000Y-122174000D02*
X202311000Y-122174000D01*
%TO.N,Net-(C11-Pad2)*%
X229362000Y-109728000D02*
X229743000Y-109347000D01*
X220797000Y-109728000D02*
X229362000Y-109728000D01*
%TO.N,Net-(C11-Pad1)*%
X203962000Y-109728000D02*
X201549000Y-107315000D01*
X217297000Y-109728000D02*
X203962000Y-109728000D01*
X201168000Y-107696000D02*
X201549000Y-107315000D01*
X201168000Y-110617000D02*
X201168000Y-107696000D01*
%TO.N,Net-(C14-Pad1)*%
X178162000Y-95485000D02*
X178054000Y-95377000D01*
X178162000Y-99848000D02*
X178162000Y-95485000D01*
%TO.N,Net-(JP1-Pad3)*%
X186309000Y-117729000D02*
X186309000Y-108331000D01*
X185446000Y-107468000D02*
X178162000Y-107468000D01*
X186309000Y-108331000D02*
X185446000Y-107468000D01*
%TO.N,AUDIO_OUT*%
X188849000Y-117729000D02*
X188849000Y-117475000D01*
%TO.N,Net-(JP1-Pad1)*%
X188214000Y-120904000D02*
X191389000Y-117729000D01*
X181864000Y-120904000D02*
X188214000Y-120904000D01*
%TO.N,Net-(MK1-Pad2)*%
X164084000Y-145156000D02*
X152268000Y-145156000D01*
X151003000Y-143891000D02*
X151003000Y-141859000D01*
X152268000Y-145156000D02*
X151003000Y-143891000D01*
%TO.N,ALIM_RAM*%
X124333000Y-174752000D02*
X124333000Y-170307000D01*
X124333000Y-170307000D02*
X134239000Y-160401000D01*
X134239000Y-143383000D02*
X131191000Y-140335000D01*
X134239000Y-160401000D02*
X134239000Y-143383000D01*
%TO.N,Net-(R3-Pad2)*%
X124333000Y-162052000D02*
X120523000Y-162052000D01*
%TO.N,Net-(R5-Pad2)*%
X120523000Y-174752000D02*
X116459000Y-174752000D01*
%TO.N,Net-(U6-Pad3)*%
X170542000Y-99848000D02*
X173082000Y-99848000D01*
%TO.N,Net-(D1-Pad2)*%
X132080000Y-101092000D02*
X132207000Y-100965000D01*
X132080000Y-108585000D02*
X132080000Y-101092000D01*
%TO.N,Net-(D1-Pad1)*%
X132334000Y-98298000D02*
X132207000Y-98425000D01*
X136652000Y-98298000D02*
X132334000Y-98298000D01*
%TO.N,RECORD_LED*%
X132842000Y-110363000D02*
X133350000Y-109855000D01*
X125730000Y-110363000D02*
X132842000Y-110363000D01*
%TO.N,RECORD_BUTTON*%
X125730000Y-112903000D02*
X127889000Y-112903000D01*
X132715000Y-117729000D02*
X138026000Y-117729000D01*
X127889000Y-112903000D02*
X132715000Y-117729000D01*
X138026000Y-117729000D02*
X144526000Y-117729000D01*
X147574000Y-117729000D02*
X147955000Y-118110000D01*
X144526000Y-117729000D02*
X147574000Y-117729000D01*
%TO.N,OSC1*%
X117802000Y-130375000D02*
X118110000Y-130683000D01*
X114046000Y-130375000D02*
X117802000Y-130375000D01*
X112322000Y-128651000D02*
X114046000Y-130375000D01*
X106934000Y-128651000D02*
X112322000Y-128651000D01*
%TO.N,OSC2*%
X116078000Y-133223000D02*
X114046000Y-135255000D01*
X118110000Y-133223000D02*
X116078000Y-133223000D01*
X115062000Y-136271000D02*
X114046000Y-135255000D01*
X115062000Y-141605000D02*
X115062000Y-136271000D01*
%TO.N,Net-(R10-Pad1)*%
X86661000Y-132127000D02*
X86741000Y-132207000D01*
X84328000Y-132127000D02*
X86661000Y-132127000D01*
%TO.N,Net-(R11-Pad1)*%
X86534000Y-118030000D02*
X86614000Y-118110000D01*
X84328000Y-118030000D02*
X86534000Y-118030000D01*
%TD*%
M02*
